<svg width="12" height="12" viewBox="0 0 12 12" fill="none" xmlns="http://www.w3.org/2000/svg">
<path d="M10.7846 0.962643C10.629 0.806599 10.4176 0.718905 10.1971 0.718905C9.97671 0.718905 9.76534 0.806599 9.60964 0.962643L5.53464 5.02931L1.45964 0.954309C1.30395 0.798265 1.09257 0.710571 0.872144 0.710571C0.651712 0.710571 0.440336 0.798265 0.284644 0.954309C-0.0403564 1.27931 -0.0403564 1.80431 0.284644 2.12931L4.35964 6.20431L0.284644 10.2793C-0.0403564 10.6043 -0.0403564 11.1293 0.284644 11.4543C0.609644 11.7793 1.13464 11.7793 1.45964 11.4543L5.53464 7.37931L9.60964 11.4543C9.93464 11.7793 10.4596 11.7793 10.7846 11.4543C11.1096 11.1293 11.1096 10.6043 10.7846 10.2793L6.70964 6.20431L10.7846 2.12931C11.1013 1.81264 11.1013 1.27931 10.7846 0.962643Z" fill="#A0A9B5"/>
</svg>
