<svg width="24" height="24" viewBox="0 0 24 24" fill="none" xmlns="http://www.w3.org/2000/svg">
<path d="M21.1304 11.0869H2.86955C2.38931 11.0869 2 11.4762 2 11.9565C2 12.4367 2.38931 12.826 2.86955 12.826H21.1304C21.6107 12.826 22 12.4367 22 11.9565C22 11.4762 21.6107 11.0869 21.1304 11.0869Z" fill="#A0A9B5"/>
<path d="M2.86955 6.73911H21.1304C21.6107 6.73911 22 6.3498 22 5.86955C22 5.38931 21.6107 5 21.1304 5H2.86955C2.38931 5 2 5.38931 2 5.86955C2 6.3498 2.38931 6.73911 2.86955 6.73911Z" fill="#A0A9B5"/>
<path d="M21.1304 17.1738H2.86955C2.38931 17.1738 2 17.5632 2 18.0434C2 18.5237 2.38931 18.913 2.86955 18.913H21.1304C21.6107 18.913 22 18.5237 22 18.0434C22 17.5632 21.6107 17.1738 21.1304 17.1738Z" fill="#A0A9B5"/>
</svg>
