<svg width="20" height="20" viewBox="0 0 20 20" fill="none" xmlns="http://www.w3.org/2000/svg">
<path d="M5.0615 15.6531C3.21025 15.6531 1.75757 13.1329 1.75757 9.91562C1.75757 6.71014 3.2397 4.10156 5.0615 4.10156C6.88331 4.10156 8.36824 6.71014 8.36824 9.91562C8.36824 13.1334 6.91585 15.6531 5.0615 15.6531ZM5.0615 4.66254C3.57489 4.66254 2.31856 7.06805 2.31856 9.91562C2.31856 12.7206 3.57489 15.0921 5.0615 15.0921C6.54812 15.0921 7.80725 12.7217 7.80725 9.91562C7.80725 7.06805 6.5498 4.66254 5.0615 4.66254Z" fill="black"/>
<path d="M4.97132 12.7609C4.11525 12.7609 3.46984 11.5397 3.46984 9.92011C3.46984 8.30054 4.11497 7.08179 4.97132 7.08179C5.82766 7.08179 6.47308 8.30194 6.47308 9.92011C6.47308 11.5383 5.82738 12.7609 4.97132 12.7609ZM4.97132 7.64278C4.5273 7.64278 4.03082 8.61665 4.03082 9.92011C4.03082 11.2236 4.5273 12.2 4.97132 12.2C5.41534 12.2 5.91209 11.225 5.91209 9.92011C5.91209 8.61525 5.41534 7.64278 4.97132 7.64278Z" fill="black"/>
<path d="M6.19197 10.2724H0.795279C0.720887 10.2724 0.649543 10.2429 0.59694 10.1903C0.544337 10.1377 0.514785 10.0663 0.514785 9.99193V1.62481C0.492462 1.44839 0.507983 1.26923 0.560314 1.09928C0.612645 0.929323 0.700586 0.772467 0.818279 0.639157C0.948962 0.491805 1.10966 0.37412 1.28958 0.294004C1.4695 0.213888 1.66449 0.173196 1.86143 0.17466H17.3133C17.693 0.175105 18.0571 0.32617 18.3257 0.594715C18.5942 0.863261 18.7453 1.22736 18.7457 1.60714V6.56037H18.1847V1.60714C18.1845 1.37607 18.0926 1.15454 17.9292 0.991147C17.7659 0.827758 17.5443 0.735869 17.3133 0.735646H1.86143C1.74456 0.734238 1.62873 0.757836 1.52172 0.804859C1.41471 0.851881 1.31899 0.921241 1.24098 1.00829C1.17402 1.08406 1.1243 1.17345 1.09524 1.2703C1.06619 1.36715 1.05849 1.46916 1.07269 1.56927C1.07435 1.58173 1.07519 1.59429 1.07521 1.60686V9.71144H6.19141L6.19197 10.2724Z" fill="black"/>
<path d="M8.73761 11.1352H9.45707V11.6962H8.73761V11.1352Z" fill="black"/>
<path d="M10.8476 11.1352H11.567V11.6962H10.8476V11.1352Z" fill="black"/>
<path d="M12.9587 11.1352H13.6782V11.6962H12.9587V11.1352Z" fill="black"/>
<path d="M15.0711 11.1352H15.7905V11.6962H15.0711V11.1352Z" fill="black"/>
<path d="M17.1822 11.1352H17.9017V11.6962H17.1822V11.1352Z" fill="black"/>
<path d="M14.7853 19.8092C14.7372 19.8092 14.6898 19.7968 14.6479 19.7733L14.1399 19.4875C13.9248 19.3672 13.6825 19.3041 13.4361 19.3041C13.1897 19.3041 12.9475 19.3672 12.7324 19.4875L12.2247 19.773C12.1827 19.7966 12.1354 19.809 12.0872 19.809C12.0391 19.809 11.9918 19.7966 11.9498 19.773L11.4407 19.4866C11.2257 19.3667 10.9836 19.3038 10.7374 19.3038C10.4912 19.3038 10.2491 19.3667 10.034 19.4866L9.52382 19.7733C9.48115 19.7973 9.43293 19.8097 9.38397 19.8093C9.33501 19.8089 9.287 19.7957 9.24472 19.771L7.94632 19.012C7.9038 18.9875 7.86848 18.9522 7.84387 18.9097C7.81925 18.8672 7.80622 18.819 7.80607 18.77V9.91562H8.36706V18.6087L9.38778 19.2053L9.75747 18.9974C10.0565 18.8306 10.3933 18.743 10.7357 18.743C11.0781 18.743 11.4149 18.8306 11.7139 18.9974L12.0856 19.2064L12.4555 18.9983C12.7547 18.8313 13.0917 18.7436 13.4343 18.7436C13.777 18.7436 14.1139 18.8313 14.4131 18.9983L14.7836 19.2067L15.1539 18.9983C15.4531 18.8313 15.79 18.7436 16.1327 18.7436C16.4753 18.7436 16.8123 18.8313 17.1114 18.9983L17.4761 19.2039L18.4634 18.6106V8.09213C18.4848 7.65272 18.4162 7.21356 18.2618 6.80161C18.1074 6.38965 17.8705 6.01357 17.5656 5.69644C17.2499 5.36678 16.8703 5.10503 16.45 4.92725C16.0297 4.74947 15.5774 4.65939 15.1211 4.66254H5.03564V4.10156H15.1211C15.6525 4.10125 16.1785 4.20788 16.6679 4.41508C17.1572 4.62229 17.5999 4.92585 17.9695 5.30768C18.3268 5.67743 18.6048 6.11621 18.7867 6.59716C18.9685 7.07811 19.0503 7.59111 19.0269 8.10476V18.7691C19.0269 18.8175 19.0144 18.8651 18.9906 18.9072C18.9667 18.9493 18.9324 18.9846 18.8909 19.0095L17.6287 19.7685C17.5862 19.794 17.5378 19.8079 17.4883 19.8086C17.4388 19.8093 17.39 19.797 17.3468 19.7727L16.8391 19.4869C16.6239 19.3667 16.3816 19.3036 16.1352 19.3036C15.8888 19.3036 15.6464 19.3667 15.4313 19.4869L14.9233 19.7727C14.8812 19.7966 14.8337 19.8091 14.7853 19.8092Z" fill="black"/>
</svg>
