<svg width="20" height="18" viewBox="0 0 20 18" fill="none" xmlns="http://www.w3.org/2000/svg">
<path d="M17.9572 7.82513C17.9572 7.73911 17.923 7.65662 17.8622 7.5958C17.8014 7.53498 17.7189 7.50081 17.6329 7.50081H1.8628C1.77678 7.50081 1.69429 7.53498 1.63347 7.5958C1.57265 7.65662 1.53848 7.73911 1.53848 7.82513V16.1764C1.53848 16.2624 1.57265 16.3449 1.63347 16.4057C1.69429 16.4665 1.77678 16.5007 1.8628 16.5007H17.6329C17.7189 16.5007 17.8014 16.4665 17.8622 16.4057C17.923 16.3449 17.9572 16.2624 17.9572 16.1764V7.82513ZM8.02489 15.8115V12.3251H17.3491V15.8115H8.02489ZM17.3491 11.6764H8.02489V8.14945H17.3491V11.6764ZM2.18712 8.14945H7.37625V15.8115H2.18712V8.14945Z" fill="black"/>
<path d="M19.1115 6.04138H16.2958C16.3248 5.93615 16.3382 5.82721 16.3355 5.71807V3.99346C16.3363 3.77368 16.2595 3.56068 16.1186 3.39204C15.9776 3.2234 15.7817 3.10996 15.5652 3.07174V2.78216C15.5672 2.63922 15.5199 2.49997 15.4313 2.38777C15.3427 2.27556 15.2182 2.19725 15.0787 2.16595V1.72625C15.1561 1.71533 15.2271 1.67729 15.2791 1.61891C15.3311 1.56052 15.3606 1.48559 15.3625 1.40745V1.0569C15.3625 1.03663 15.3625 1.01579 15.3622 0.994425C15.3613 0.956639 15.3679 0.919052 15.3816 0.88382C15.3952 0.848588 15.4157 0.816405 15.4419 0.789118C15.468 0.761832 15.4993 0.739979 15.534 0.724815C15.5686 0.709651 15.6058 0.701473 15.6436 0.700752L16.4088 0.688104C16.4948 0.68655 16.5767 0.650891 16.6364 0.58897C16.6962 0.52705 16.7288 0.443941 16.7273 0.357925C16.7257 0.27191 16.6901 0.190035 16.6282 0.130312C16.5662 0.0705886 16.4831 0.0379093 16.3971 0.039463L15.6304 0.0521115C15.5138 0.0568975 15.399 0.0832472 15.292 0.129827C15.2616 0.088513 15.2217 0.0551968 15.1756 0.0327412C15.1294 0.0102855 15.0786 -0.000638046 15.0273 0.000909346H13.6474C13.6063 -0.000726513 13.5654 0.00608561 13.5271 0.0209236C13.4888 0.0357616 13.4539 0.0583091 13.4247 0.0871688C13.3954 0.116028 13.3724 0.150585 13.3571 0.188697C13.3418 0.226809 13.3344 0.267664 13.3355 0.30873V1.40737C13.3364 1.4796 13.3605 1.54963 13.4043 1.60706C13.4482 1.6645 13.5093 1.70627 13.5788 1.72617V2.16607C13.4393 2.19737 13.3148 2.27569 13.2262 2.38789C13.1376 2.50009 13.0904 2.63934 13.0923 2.78228V3.07186C12.8759 3.11008 12.6799 3.22352 12.539 3.39216C12.398 3.5608 12.3212 3.7738 12.322 3.99358V5.71819C12.3256 5.82806 12.3447 5.93687 12.3788 6.04138H9.28152V3.6815C9.28152 3.50235 9.12195 3.36573 8.94285 3.36573H3.53091C3.22078 3.36635 2.917 3.45371 2.65392 3.61793C2.39084 3.78216 2.17894 4.0167 2.04218 4.29506C1.90542 4.57341 1.84925 4.88447 1.88003 5.19307C1.9108 5.50167 2.02729 5.79551 2.21632 6.04138H0.42445C0.383648 6.04009 0.34302 6.04725 0.305121 6.06242C0.267221 6.07759 0.232869 6.10043 0.204225 6.12952C0.175581 6.1586 0.153265 6.1933 0.138678 6.23143C0.124091 6.26955 0.117551 6.31029 0.119467 6.35106V17.6118C0.117619 17.6525 0.124223 17.6931 0.138861 17.7311C0.153499 17.7691 0.175853 17.8036 0.204514 17.8326C0.233175 17.8615 0.26752 17.8842 0.305381 17.8991C0.343242 17.9141 0.383798 17.9211 0.42449 17.9196H19.1115C19.1522 17.9211 19.1928 17.9141 19.2306 17.8991C19.2685 17.8842 19.3028 17.8615 19.3315 17.8326C19.3601 17.8036 19.3825 17.7691 19.3971 17.7311C19.4118 17.6931 19.4184 17.6525 19.4165 17.6118V6.35106C19.4185 6.31028 19.4119 6.26955 19.3973 6.23142C19.3827 6.19329 19.3604 6.15859 19.3318 6.1295C19.3031 6.10042 19.2688 6.07757 19.2309 6.06241C19.1929 6.04724 19.1523 6.04008 19.1115 6.04138ZM14.4301 1.74413V2.14953H14.2274V1.74413H14.4301ZM14.9166 2.79817V3.04141H13.7409V2.79817H14.9166ZM13.9842 0.64955H14.7139V1.09549H13.9842V0.64955ZM15.6868 5.71183C15.6868 5.78847 15.6564 5.86198 15.6022 5.91617C15.548 5.97037 15.4745 6.00083 15.3979 6.00084H13.2596C13.183 6.00083 13.1095 5.97037 13.0553 5.91617C13.0011 5.86198 12.9707 5.78847 12.9707 5.71183V3.97906C12.9707 3.90242 13.0011 3.82892 13.0553 3.77472C13.1095 3.72052 13.183 3.69007 13.2596 3.69005H15.3979C15.4745 3.69007 15.548 3.72052 15.6022 3.77472C15.6564 3.82892 15.6868 3.90242 15.6868 3.97906V5.71183ZM2.52045 5.02788C2.52063 4.75966 2.62705 4.50244 2.81642 4.3125C3.0058 4.12255 3.2627 4.01536 3.53091 4.01438H8.63288V6.04138H3.53091C3.2627 6.04038 3.00581 5.93319 2.81644 5.74325C2.62707 5.55331 2.52064 5.29609 2.52045 5.02788ZM18.7679 17.271H0.768108V6.69002H18.7679V17.271Z" fill="black"/>
</svg>
