<svg width="16" height="21" viewBox="0 0 16 21" fill="none" xmlns="http://www.w3.org/2000/svg">
<path d="M7.03471 12.6605V2.33542C7.03723 2.03746 6.98073 1.74194 6.86845 1.46593C6.75617 1.18992 6.59035 0.938875 6.38054 0.727284C6.17074 0.515693 5.92111 0.347745 5.64606 0.233132C5.371 0.118518 5.07598 0.0595093 4.778 0.0595093C4.48003 0.0595093 4.185 0.118518 3.90995 0.233132C3.6349 0.347745 3.38527 0.515693 3.17547 0.727284C2.96566 0.938875 2.79984 1.18992 2.68756 1.46593C2.57528 1.74194 2.51878 2.03746 2.5213 2.33542V12.6605C1.71558 13.142 1.08499 13.8685 0.721715 14.734C0.358442 15.5995 0.281535 16.5585 0.502237 17.4708C0.722939 18.3831 1.22968 19.2008 1.94837 19.8046C2.66707 20.4083 3.56004 20.7663 4.49674 20.8262C4.5922 20.8322 4.68717 20.8351 4.78165 20.8351C5.90015 20.8385 6.97707 20.4115 7.7894 19.6426C8.28555 19.1766 8.66677 18.6017 8.90306 17.9633C9.13935 17.3249 9.22426 16.6404 9.1511 15.9636C9.07795 15.2868 8.84873 14.6362 8.48149 14.0631C8.11424 13.4899 7.61899 13.0098 7.03471 12.6605ZM7.4007 19.2298C7.01948 19.5901 6.56781 19.8678 6.07411 20.0452C5.58041 20.2226 5.05534 20.2959 4.53193 20.2606C3.70351 20.2073 2.91481 19.8864 2.28452 19.3462C1.65422 18.806 1.21643 18.0757 1.03702 17.2652C0.857611 16.4547 0.946296 15.6078 1.28973 14.8521C1.63316 14.0963 2.21276 13.4726 2.9413 13.0746C2.98596 13.0502 3.02323 13.0142 3.04919 12.9704C3.07515 12.9266 3.08886 12.8766 3.08886 12.8257V2.33542C3.08668 2.11221 3.12875 1.89078 3.21266 1.68392C3.29656 1.47707 3.42064 1.28889 3.57771 1.13028C3.73477 0.971662 3.92172 0.845751 4.12775 0.759822C4.33377 0.673893 4.55478 0.62965 4.778 0.62965C5.00123 0.62965 5.22224 0.673893 5.42826 0.759822C5.63429 0.845751 5.82123 0.971662 5.9783 1.13028C6.13537 1.28889 6.25945 1.47707 6.34335 1.68392C6.42726 1.89078 6.46933 2.11221 6.46715 2.33542V2.45023H6.11575C6.04048 2.45023 5.9683 2.48013 5.91508 2.53335C5.86186 2.58657 5.83197 2.65875 5.83197 2.73401C5.83197 2.80928 5.86186 2.88146 5.91508 2.93468C5.9683 2.9879 6.04048 3.01779 6.11575 3.01779H6.46715V3.70697H6.11575C6.04048 3.70697 5.9683 3.73687 5.91508 3.79009C5.86186 3.84331 5.83197 3.91549 5.83197 3.99075C5.83197 4.06602 5.86186 4.1382 5.91508 4.19142C5.9683 4.24464 6.04048 4.27454 6.11575 4.27454H6.46715V4.96372H6.11575C6.04048 4.96372 5.9683 4.99361 5.91508 5.04683C5.86186 5.10005 5.83197 5.17223 5.83197 5.2475C5.83197 5.32276 5.86186 5.39494 5.91508 5.44816C5.9683 5.50138 6.04048 5.53128 6.11575 5.53128H6.46715V6.22046H6.11575C6.04048 6.22046 5.9683 6.25036 5.91508 6.30358C5.86186 6.35679 5.83197 6.42898 5.83197 6.50424C5.83197 6.5795 5.86186 6.65168 5.91508 6.7049C5.9683 6.75812 6.04048 6.78802 6.11575 6.78802H6.46715V7.4772H6.11575C6.04048 7.4772 5.9683 7.5071 5.91508 7.56032C5.86186 7.61354 5.83197 7.68572 5.83197 7.76098C5.83197 7.83624 5.86186 7.90842 5.91508 7.96164C5.9683 8.01486 6.04048 8.04476 6.11575 8.04476H6.46715V8.73394H6.11575C6.04048 8.73394 5.9683 8.76384 5.91508 8.81706C5.86186 8.87028 5.83197 8.94246 5.83197 9.01772C5.83197 9.09299 5.86186 9.16517 5.91508 9.21839C5.9683 9.2716 6.04048 9.3015 6.11575 9.3015H6.46715V9.99068H6.11575C6.04048 9.99068 5.9683 10.0206 5.91508 10.0738C5.86186 10.127 5.83197 10.1992 5.83197 10.2745C5.83197 10.3497 5.86186 10.4219 5.91508 10.4751C5.9683 10.5283 6.04048 10.5582 6.11575 10.5582H6.46715V11.2474H6.11575C6.04048 11.2474 5.9683 11.2773 5.91508 11.3305C5.86186 11.3838 5.83197 11.4559 5.83197 11.5312C5.83197 11.6065 5.86186 11.6786 5.91508 11.7319C5.9683 11.7851 6.04048 11.815 6.11575 11.815H6.46715V12.8244C6.46715 12.8753 6.48086 12.9253 6.50682 12.9691C6.53278 13.0129 6.57005 13.0489 6.61471 13.0733C7.21828 13.4033 7.72194 13.8896 8.07288 14.4812C8.42381 15.0729 8.60909 15.748 8.60928 16.4359C8.61162 16.9598 8.50543 17.4785 8.29743 17.9593C8.08943 18.4402 7.78411 18.8727 7.4007 19.2298Z" fill="black"/>
<path d="M5.48641 13.7539V2.55158C5.48641 2.36343 5.41166 2.18297 5.27861 2.04993C5.14557 1.91688 4.96512 1.84213 4.77696 1.84213C4.5888 1.84213 4.40835 1.91688 4.2753 2.04993C4.14225 2.18297 4.06751 2.36343 4.06751 2.55158V13.7543C3.42698 13.9232 2.86798 14.3156 2.49151 14.8607C2.11504 15.4057 1.94593 16.0674 2.01472 16.7263C2.08351 17.3851 2.38568 17.9976 2.86662 18.4532C3.34756 18.9087 3.97557 19.1772 4.63718 19.2101C4.68463 19.2124 4.73188 19.2135 4.7789 19.2135C5.45305 19.2132 6.10403 18.9675 6.61033 18.5224C7.11662 18.0772 7.44361 17.4631 7.53027 16.7945C7.61693 16.1259 7.45732 15.4487 7.08125 14.8892C6.70518 14.3297 6.13819 13.9262 5.48641 13.7539ZM6.29899 18.0366C6.08292 18.2445 5.82633 18.4057 5.54521 18.5101C5.26409 18.6144 4.96448 18.6598 4.66507 18.6432C4.12232 18.616 3.60867 18.3896 3.22242 18.0074C2.83616 17.6251 2.60443 17.1138 2.57156 16.5714C2.53869 16.029 2.70701 15.4935 3.04429 15.0674C3.38156 14.6413 3.86412 14.3545 4.39961 14.262C4.46551 14.2506 4.52526 14.2163 4.56834 14.1652C4.61142 14.114 4.63505 14.0493 4.63507 13.9824V2.55158C4.63507 2.51395 4.65002 2.47786 4.67663 2.45125C4.70324 2.42464 4.73933 2.40969 4.77696 2.40969C4.81459 2.40969 4.85068 2.42464 4.87729 2.45125C4.9039 2.47786 4.91885 2.51395 4.91885 2.55158V13.9824C4.91883 14.0493 4.94244 14.1141 4.98552 14.1653C5.0286 14.2164 5.08838 14.2508 5.1543 14.2621C5.55782 14.3313 5.93413 14.5113 6.24111 14.7822C6.54809 15.0531 6.77361 15.404 6.89242 15.7958C7.01123 16.1876 7.01865 16.6047 6.91385 17.0005C6.80904 17.3962 6.59614 17.755 6.29899 18.0366Z" fill="black"/>
<path d="M11.7239 2.8605C11.36 2.86037 11.0042 2.96816 10.7016 3.17023C10.399 3.3723 10.1631 3.65958 10.0237 3.99573C9.88439 4.33189 9.84787 4.70181 9.91878 5.05872C9.98969 5.41563 10.1649 5.7435 10.4221 6.00085C10.6794 6.2582 11.0072 6.43348 11.3641 6.50452C11.721 6.57556 12.0909 6.53916 12.4271 6.39994C12.7633 6.26072 13.0507 6.02492 13.2528 5.72236C13.455 5.41981 13.5629 5.0641 13.5629 4.70021C13.5624 4.21257 13.3685 3.74506 13.0237 3.40018C12.6789 3.05531 12.2115 2.86123 11.7239 2.8605ZM11.7239 5.97236C11.4722 5.97248 11.2262 5.89798 11.0169 5.75828C10.8076 5.61857 10.6445 5.41993 10.5481 5.18749C10.4517 4.95505 10.4264 4.69924 10.4754 4.45242C10.5244 4.20561 10.6456 3.97887 10.8234 3.80089C11.0013 3.62292 11.228 3.50169 11.4748 3.45255C11.7216 3.40341 11.9774 3.42857 12.2099 3.52484C12.4424 3.6211 12.6411 3.78416 12.7809 3.99337C12.9207 4.20259 12.9954 4.44857 12.9954 4.70021C12.995 5.03737 12.8609 5.36063 12.6226 5.5991C12.3842 5.83757 12.061 5.9718 11.7239 5.97236Z" fill="black"/>
<path d="M15.0831 4.51031L14.4549 3.81302L14.553 2.87931C14.5606 2.80941 14.5419 2.73921 14.5007 2.68228C14.4594 2.62536 14.3985 2.58578 14.3297 2.5712L13.4113 2.37661L12.9426 1.56289C12.9075 1.50204 12.8512 1.45636 12.7844 1.43468C12.7176 1.41299 12.6451 1.41684 12.581 1.44548L11.7243 1.82883L10.8662 1.44597C10.802 1.41729 10.7296 1.41342 10.6628 1.43511C10.596 1.4568 10.5396 1.5025 10.5045 1.56337L10.0359 2.37709L9.11742 2.57169C9.04864 2.58626 8.98773 2.62585 8.94648 2.68277C8.90522 2.73969 8.88657 2.8099 8.89412 2.87979L8.99142 3.81351L8.36321 4.5108C8.31628 4.56292 8.29032 4.63056 8.29032 4.70069C8.29032 4.77082 8.31628 4.83846 8.36321 4.89058L8.99142 5.58787L8.89331 6.52159C8.88576 6.59148 8.90441 6.66169 8.94567 6.71861C8.98692 6.77553 9.04783 6.81511 9.1166 6.82969L10.0351 7.02428L10.5036 7.83784C10.5385 7.89877 10.5949 7.94453 10.6617 7.96625C10.7285 7.98798 10.8011 7.98411 10.8652 7.95541L11.7243 7.57157L12.5818 7.9546C12.6459 7.9833 12.7184 7.98717 12.7853 7.96544C12.8521 7.94372 12.9084 7.89796 12.9434 7.83703L13.4108 7.02347L14.3292 6.82888C14.398 6.8143 14.4589 6.77472 14.5002 6.7178C14.5414 6.66088 14.5601 6.59067 14.5525 6.52078L14.4544 5.58706L15.0826 4.88977C15.1295 4.83773 15.1555 4.77019 15.1556 4.70013C15.1557 4.63008 15.1299 4.56247 15.0831 4.51031ZM13.948 5.30198C13.9214 5.33155 13.9013 5.36637 13.8891 5.4042C13.8768 5.44202 13.8726 5.482 13.8768 5.52154L13.9615 6.32651L13.1692 6.49434C13.1301 6.5026 13.0933 6.51898 13.0611 6.54242C13.0288 6.56586 13.0019 6.59584 12.982 6.6304L12.5781 7.33174L11.8394 7.00158C11.803 6.98529 11.7636 6.97687 11.7237 6.97687C11.6838 6.97687 11.6443 6.98529 11.6079 7.00158L10.8684 7.33174L10.4646 6.62991C10.4448 6.59535 10.4178 6.56538 10.3856 6.54193C10.3533 6.51849 10.3165 6.50211 10.2775 6.49386L9.4852 6.32602L9.56984 5.5209C9.57402 5.48134 9.56983 5.44135 9.55753 5.40352C9.54524 5.36569 9.52512 5.33087 9.49849 5.30133L8.95688 4.69972L9.49865 4.09794C9.52524 4.06837 9.54532 4.03355 9.55758 3.99572C9.56984 3.9579 9.57402 3.91792 9.56984 3.87837L9.48536 3.07341L10.2775 2.90558C10.3165 2.89733 10.3533 2.88097 10.3855 2.85756C10.4178 2.83414 10.4447 2.8042 10.4646 2.76968L10.8686 2.06818L11.6079 2.39834C11.6443 2.41463 11.6838 2.42305 11.7237 2.42305C11.7636 2.42305 11.803 2.41463 11.8394 2.39834L12.5787 2.06818L12.9827 2.7705C13.0026 2.80501 13.0295 2.83496 13.0618 2.85837C13.094 2.88178 13.1308 2.89814 13.1698 2.90639L13.962 3.07422L13.8773 3.87935C13.8731 3.9189 13.8773 3.95889 13.8896 3.99672C13.9019 4.03455 13.922 4.06937 13.9487 4.09891L14.4903 4.70053L13.948 5.30198Z" fill="black"/>
</svg>
