<svg width="21" height="18" viewBox="0 0 21 18" fill="none" xmlns="http://www.w3.org/2000/svg">
<path d="M20.4964 11.0321H17.5322C17.4613 10.7538 17.2998 10.507 17.0731 10.3308C16.8464 10.1545 16.5674 10.0588 16.2803 10.0588C15.9931 10.0588 15.7141 10.1545 15.4874 10.3308C15.2607 10.507 15.0992 10.7538 15.0284 11.0321H13.6857V10.0137C13.9912 9.93508 14.2575 9.74768 14.4346 9.48667C14.6117 9.22567 14.6874 8.909 14.6476 8.5961C14.6078 8.2832 14.4552 7.99558 14.2183 7.78724C13.9815 7.5789 13.6768 7.46415 13.3614 7.46453H12.7127V5.84293C12.7127 5.75691 12.6786 5.67442 12.6178 5.6136C12.5569 5.55277 12.4744 5.51861 12.3884 5.51861H12.0641V4.22132H12.3884C12.4744 4.22132 12.5569 4.18715 12.6178 4.12633C12.6786 4.06551 12.7127 3.98302 12.7127 3.897V2.92404H15.3073C15.5354 2.92541 15.7597 2.86665 15.9578 2.75366C16.1559 2.64068 16.3207 2.47747 16.4357 2.28049C16.5506 2.08351 16.6115 1.85972 16.6124 1.63167C16.6132 1.40362 16.554 1.17938 16.4405 0.981536C16.3271 0.783696 16.1635 0.619252 15.9663 0.504779C15.7691 0.390306 15.5451 0.32985 15.3171 0.329503C15.089 0.329157 14.8649 0.388932 14.6673 0.502805C14.4698 0.616678 14.3057 0.780624 14.1917 0.978119H11.8825C11.7704 0.7811 11.6081 0.617284 11.4121 0.50333C11.2162 0.389375 10.9935 0.329346 10.7668 0.329346C10.5401 0.329346 10.3175 0.389375 10.1215 0.50333C9.92557 0.617284 9.76328 0.7811 9.65116 0.978119H7.342C7.22768 0.781882 7.06373 0.619179 6.86663 0.506351C6.66953 0.393522 6.44621 0.33454 6.21911 0.335327C5.992 0.336114 5.76909 0.396643 5.57278 0.510834C5.37647 0.625026 5.21365 0.788861 5.10069 0.985886C4.98773 1.18291 4.9286 1.40619 4.92923 1.6333C4.92987 1.86041 4.99025 2.08335 5.10431 2.27974C5.21837 2.47613 5.38209 2.63906 5.57904 2.75215C5.77599 2.86524 5.99923 2.92452 6.22634 2.92404H8.8209V3.897C8.8209 3.98302 8.85507 4.06551 8.91589 4.12633C8.97672 4.18715 9.05921 4.22132 9.14522 4.22132H9.46954V5.51861H9.14522C9.05921 5.51861 8.97672 5.55277 8.91589 5.6136C8.85507 5.67442 8.8209 5.75691 8.8209 5.84293V7.46453H8.17226C7.85684 7.46415 7.55212 7.5789 7.3153 7.78724C7.07848 7.99558 6.92584 8.2832 6.88603 8.5961C6.84623 8.909 6.92198 9.22567 7.09909 9.48667C7.2762 9.74768 7.54247 9.93508 7.84794 10.0137V11.0321H6.50525C6.43444 10.7538 6.27292 10.507 6.04622 10.3308C5.81951 10.1545 5.54053 10.0588 5.25338 10.0588C4.96622 10.0588 4.68725 10.1545 4.46054 10.3308C4.23383 10.507 4.07231 10.7538 4.0015 11.0321H1.03721C0.951196 11.0321 0.868704 11.0662 0.807882 11.127C0.74706 11.1879 0.712891 11.2704 0.712891 11.3564V15.8969C0.712891 15.9829 0.74706 16.0654 0.807882 16.1262C0.868704 16.187 0.951196 16.2212 1.03721 16.2212H4.0015C4.07231 16.4995 4.23383 16.7462 4.46054 16.9225C4.68725 17.0987 4.96622 17.1944 5.25338 17.1944C5.54053 17.1944 5.81951 17.0987 6.04622 16.9225C6.27292 16.7462 6.43444 16.4995 6.50525 16.2212H8.11064C8.41226 16.3379 9.83603 16.8698 10.7668 16.8698C11.6976 16.8698 13.1214 16.3379 13.423 16.2212H15.0284C15.0992 16.4995 15.2607 16.7462 15.4874 16.9225C15.7141 17.0987 15.9931 17.1944 16.2803 17.1944C16.5674 17.1944 16.8464 17.0987 17.0731 16.9225C17.2998 16.7462 17.4613 16.4995 17.5322 16.2212H20.4964C20.5825 16.2212 20.6649 16.187 20.7258 16.1262C20.7866 16.0654 20.8208 15.9829 20.8208 15.8969V11.3564C20.8208 11.2704 20.7866 11.1879 20.7258 11.127C20.6649 11.0662 20.5825 11.0321 20.4964 11.0321ZM15.3073 0.978119C15.4356 0.978119 15.561 1.01616 15.6677 1.08743C15.7743 1.15871 15.8575 1.26001 15.9066 1.37854C15.9557 1.49706 15.9685 1.62748 15.9435 1.7533C15.9185 1.87913 15.8567 1.9947 15.766 2.08542C15.6753 2.17613 15.5597 2.23791 15.4339 2.26294C15.308 2.28797 15.1776 2.27512 15.0591 2.22603C14.9406 2.17693 14.8393 2.09379 14.768 1.98713C14.6967 1.88046 14.6587 1.75505 14.6587 1.62676C14.6592 1.45489 14.7277 1.2902 14.8492 1.16867C14.9708 1.04714 15.1354 0.978633 15.3073 0.978119ZM6.22634 2.2754C6.09805 2.2754 5.97264 2.23736 5.86597 2.16609C5.7593 2.09481 5.67617 1.99351 5.62707 1.87498C5.57798 1.75646 5.56513 1.62604 5.59016 1.50022C5.61519 1.37439 5.67697 1.25882 5.76768 1.1681C5.85839 1.07739 5.97397 1.01561 6.0998 0.990583C6.22562 0.965555 6.35604 0.9784 6.47456 1.02749C6.59309 1.07659 6.69439 1.15973 6.76566 1.26639C6.83694 1.37306 6.87498 1.49847 6.87498 1.62676C6.87447 1.79863 6.80596 1.96332 6.68443 2.08485C6.5629 2.20638 6.39821 2.27489 6.22634 2.2754ZM3.9561 15.5725H1.36153V11.6807H3.9561V15.5725ZM5.90202 15.8969C5.90202 16.0689 5.83368 16.2339 5.71204 16.3555C5.59039 16.4772 5.42541 16.5455 5.25338 16.5455C5.08135 16.5455 4.91636 16.4772 4.79472 16.3555C4.67308 16.2339 4.60474 16.0689 4.60474 15.8969V11.3564C4.60474 11.1843 4.67308 11.0194 4.79472 10.8977C4.91636 10.7761 5.08135 10.7077 5.25338 10.7077C5.42541 10.7077 5.59039 10.7761 5.71204 10.8977C5.83368 11.0194 5.90202 11.1843 5.90202 11.3564V15.8969ZM7.84794 15.5725H6.55066V11.6807H7.84794V15.5725ZM12.0641 1.62676H14.01C14.0109 1.8554 14.0737 2.07954 14.1917 2.2754H11.8825C12.0005 2.07954 12.0632 1.8554 12.0641 1.62676ZM10.7668 0.978119C10.8951 0.978119 11.0205 1.01616 11.1272 1.08743C11.2339 1.15871 11.317 1.26001 11.3661 1.37854C11.4152 1.49706 11.428 1.62748 11.403 1.7533C11.378 1.87913 11.3162 1.9947 11.2255 2.08542C11.1348 2.17613 11.0192 2.23791 10.8934 2.26294C10.7675 2.28797 10.6371 2.27512 10.5186 2.22603C10.4001 2.17693 10.2988 2.09379 10.2275 1.98713C10.1562 1.88046 10.1182 1.75505 10.1182 1.62676C10.1187 1.45489 10.1872 1.2902 10.3087 1.16867C10.4303 1.04714 10.595 0.978633 10.7668 0.978119ZM12.0641 2.92404V3.57268H9.46954V2.92404H12.0641ZM11.4155 4.22132V5.51861H10.1182V4.22132H11.4155ZM7.342 2.2754C7.45997 2.07954 7.52273 1.8554 7.52362 1.62676H9.46954C9.47044 1.8554 9.5332 2.07954 9.65116 2.2754H7.342ZM9.46954 6.16725H12.0641V7.46453H9.46954V6.16725ZM13.0371 15.6731C12.3106 15.9638 11.546 16.1484 10.7668 16.2212C9.98775 16.148 9.22321 15.9635 8.49658 15.6731V10.0591H13.0371V15.6731ZM13.3614 9.41045H8.17226C8.00023 9.41045 7.83525 9.34211 7.7136 9.22047C7.59196 9.09883 7.52362 8.93384 7.52362 8.76181C7.52362 8.58978 7.59196 8.4248 7.7136 8.30315C7.83525 8.18151 8.00023 8.11317 8.17226 8.11317H13.3614C13.5334 8.11317 13.6984 8.18151 13.82 8.30315C13.9417 8.4248 14.01 8.58978 14.01 8.76181C14.01 8.93384 13.9417 9.09883 13.82 9.22047C13.6984 9.34211 13.5334 9.41045 13.3614 9.41045ZM14.983 15.5725H13.6857V11.6807H14.983V15.5725ZM16.9289 15.8969C16.9289 16.0689 16.8606 16.2339 16.7389 16.3555C16.6173 16.4772 16.4523 16.5455 16.2803 16.5455C16.1082 16.5455 15.9433 16.4772 15.8216 16.3555C15.7 16.2339 15.6316 16.0689 15.6316 15.8969V11.3564C15.6316 11.1843 15.7 11.0194 15.8216 10.8977C15.9433 10.7761 16.1082 10.7077 16.2803 10.7077C16.4523 10.7077 16.6173 10.7761 16.7389 10.8977C16.8606 11.0194 16.9289 11.1843 16.9289 11.3564V15.8969ZM20.1721 15.5725H17.5776V11.6807H20.1721V15.5725Z" fill="black"/>
</svg>
