<svg width="17" height="20" viewBox="0 0 17 20" fill="none" xmlns="http://www.w3.org/2000/svg">
<path d="M0.991312 9.2205C0.982633 9.22896 0.973991 9.2375 0.966021 9.24675C0.885261 9.34019 0.849167 9.46384 0.867055 9.58601L0.993579 10.4522C1.0137 10.5897 1.1002 10.7043 1.21716 10.7662L1.88785 15.3565C1.87917 15.3649 1.87057 15.3734 1.8626 15.3827C1.78184 15.4761 1.74571 15.5997 1.76356 15.7221L1.89012 16.5881C1.91017 16.7256 1.9967 16.8403 2.1137 16.9022L2.28418 18.0691C2.36313 18.6096 2.83455 19.0172 3.38074 19.0172H8.14738C8.29413 19.0172 8.41303 18.8982 8.41303 18.7515C8.41303 18.6048 8.29413 18.4858 8.14738 18.4858H7.5584L7.5047 16.9516H10.0298L9.97609 18.4858H9.38711C9.24036 18.4858 9.12145 18.6048 9.12145 18.7515C9.12145 18.8982 9.24036 19.0172 9.38711 19.0172H14.1537C14.7 19.0172 15.1714 18.6096 15.2503 18.0692L15.4208 16.9022C15.5377 16.8403 15.6242 16.7257 15.6444 16.5882L15.7709 15.7221C15.7888 15.5999 15.7527 15.4762 15.672 15.3828C15.664 15.3735 15.6553 15.365 15.6467 15.3565L16.3173 10.7663C16.4343 10.7044 16.5208 10.5897 16.5409 10.4522L16.6674 9.58611C16.6853 9.46391 16.6492 9.34022 16.5685 9.24678C16.5605 9.23754 16.5519 9.229 16.5432 9.22053L16.7417 7.86182C16.7721 7.65386 16.7107 7.44339 16.5732 7.28442C16.4357 7.12545 16.2364 7.03424 16.0262 7.03424C15.8013 7.03424 11.0598 7.03424 10.8283 7.03424L10.3852 5.6292C10.2199 5.10472 10.2886 4.52725 10.574 4.04482C10.6472 3.92099 10.7078 3.78894 10.7541 3.65236C10.8012 3.5134 10.7267 3.36258 10.5878 3.3155C10.4489 3.26839 10.298 3.34285 10.2509 3.48184C10.2164 3.58367 10.1712 3.68211 10.1167 3.77435C9.7546 4.38649 9.66782 5.1208 9.87854 5.78902L10.2712 7.03424H7.2633L7.65205 5.80145C7.86826 5.11591 7.78594 4.38224 7.42631 3.78841C7.27896 3.54517 7.20111 3.26535 7.20111 2.97925C7.20111 2.09128 7.93669 1.37985 8.82877 1.41425C9.45367 1.43805 10.0038 1.83391 10.2303 2.42272C10.2829 2.55962 10.4366 2.62791 10.5736 2.57527C10.7105 2.5226 10.7789 2.36888 10.7262 2.23194C10.4232 1.4446 9.68645 0.915235 8.849 0.88332C7.65531 0.838159 6.66975 1.78857 6.66975 2.97925C6.66975 3.36243 6.77421 3.73744 6.97182 4.06366C7.25229 4.52672 7.31551 5.10189 7.14532 5.64163L6.70617 7.03421C6.47462 7.03421 1.73296 7.03421 1.50821 7.03421C1.29802 7.03421 1.09864 7.12538 0.961239 7.28439C0.82377 7.44339 0.762386 7.65386 0.792777 7.86178L0.991312 9.2205ZM16.1239 9.63103L16.0285 10.2843C15.6681 10.2843 1.66038 10.2843 1.50601 10.2843L1.41059 9.63103H16.1239ZM12.8708 15.2357H10.6215L10.7762 10.8156H13.2967L12.8708 15.2357ZM4.23779 10.8156H6.7582L6.91295 15.2358H4.66358L4.23779 10.8156ZM7.28983 10.8156H10.2446L10.0899 15.2358H7.44459L7.28983 10.8156ZM3.70403 10.8156L4.12982 15.2358H2.40712L1.76129 10.8156H3.70403ZM2.80986 17.9923L2.65783 16.9516H4.29513L4.44294 18.4858H3.38074C3.09638 18.4858 2.85098 18.2737 2.80986 17.9923ZM7.02676 18.4858H4.97674L4.82889 16.9516H6.97306L7.02676 18.4858ZM2.40252 16.4203L2.30706 15.767H15.2274L15.132 16.4203C15.017 16.4203 2.51562 16.4203 2.40252 16.4203ZM10.5614 16.9516H12.7056L12.5577 18.4858H10.5077L10.5614 16.9516ZM14.7246 17.9923C14.6835 18.2737 14.4381 18.4858 14.1537 18.4858H13.0915L13.2393 16.9516H14.8767L14.7246 17.9923ZM15.1274 15.2357H13.4046L13.8305 10.8156H15.7732L15.1274 15.2357ZM16.1713 7.63187C16.1927 7.65666 16.227 7.70947 16.216 7.78499L16.0239 9.09975H13.9958L14.1435 7.56556H16.0262C16.1025 7.56552 16.1498 7.60707 16.1713 7.63187ZM13.4619 9.09971H10.8363L10.8901 7.56552H13.6098L13.4619 9.09971ZM10.3584 7.56552L10.3047 9.09971H7.22972L7.17599 7.56552H10.3584ZM6.64439 7.56552L6.69813 9.09971H4.07255L3.92474 7.56552H6.64439ZM1.3632 7.63187C1.38459 7.60707 1.43191 7.56552 1.50825 7.56552H3.39094L3.53872 9.09971H1.51058L1.3185 7.78496C1.30748 7.70948 1.3418 7.65663 1.3632 7.63187Z" fill="black"/>
<path d="M7.76857 2.96372C7.76857 3.51405 8.21628 3.96173 8.76658 3.96173C9.31691 3.96173 9.76463 3.51401 9.76463 2.96372C9.76463 2.41342 9.31687 1.96567 8.76654 1.96567C8.21625 1.96567 7.76857 2.41339 7.76857 2.96372ZM9.23328 2.96372C9.23328 3.22109 9.02391 3.43042 8.76654 3.43042C8.50918 3.43042 8.29984 3.22105 8.29984 2.96372C8.29984 2.70639 8.50918 2.49702 8.76654 2.49702C9.02391 2.49698 9.23328 2.70635 9.23328 2.96372Z" fill="black"/>
</svg>
