<svg width="16" height="20" viewBox="0 0 16 20" fill="none" xmlns="http://www.w3.org/2000/svg">
<path d="M7.64716 4.4235C8.0152 4.4235 8.37498 4.31436 8.681 4.10989C8.98702 3.90542 9.22553 3.61479 9.36637 3.27476C9.50721 2.93473 9.54407 2.56058 9.47226 2.19961C9.40046 1.83863 9.22323 1.50706 8.96299 1.24682C8.70274 0.98657 8.37117 0.809341 8.0102 0.737539C7.64922 0.665737 7.27507 0.702588 6.93504 0.843432C6.59501 0.984276 6.30439 1.22279 6.09991 1.5288C5.89544 1.83482 5.7863 2.1946 5.7863 2.56264C5.78687 3.056 5.98311 3.52898 6.33197 3.87784C6.68082 4.22669 7.15381 4.42293 7.64716 4.4235ZM7.64716 1.33136C7.89068 1.33136 8.12874 1.40358 8.33122 1.53887C8.53371 1.67417 8.69152 1.86647 8.78471 2.09145C8.87791 2.31644 8.90229 2.56401 8.85478 2.80285C8.80727 3.0417 8.69 3.26109 8.51781 3.43329C8.34561 3.60548 8.12622 3.72275 7.88737 3.77026C7.64853 3.81777 7.40096 3.79339 7.17597 3.70019C6.95098 3.607 6.75868 3.44919 6.62339 3.2467C6.4881 3.04422 6.41588 2.80617 6.41588 2.56264C6.41612 2.23611 6.5459 1.92301 6.77675 1.69207C7.00759 1.46112 7.32063 1.33174 7.64716 1.33136Z" fill="black"/>
<path d="M15.1714 16.0008L13.3834 11.9977C13.2682 11.7366 13.0773 11.516 12.8356 11.3644C12.5938 11.2128 12.3121 11.1372 12.0269 11.1472C11.9952 11.1456 12.178 11.1472 9.21608 11.1463V9.95356C9.42287 10.0579 9.65125 10.1124 9.88289 10.1126C9.92642 10.1151 10.9212 10.1138 13.1231 10.114C13.5047 10.114 13.8708 9.9624 14.1406 9.69252C14.4105 9.42265 14.5621 9.05663 14.5621 8.67497C14.5621 8.29331 14.4105 7.92729 14.1406 7.65741C13.8708 7.38754 13.5047 7.23593 13.1231 7.23593H10.4707L8.64766 5.41069C8.51446 5.27648 8.3559 5.1701 8.1812 5.09774C8.0065 5.02539 7.81916 4.9885 7.63007 4.98923C7.4105 4.98736 7.19277 5.02938 6.98965 5.1128C6.78654 5.19623 6.60213 5.31938 6.44726 5.47505C6.29238 5.63071 6.17016 5.81573 6.08777 6.01927C6.00537 6.22281 5.96447 6.44075 5.96744 6.66031V12.0317C5.96806 12.5601 6.17825 13.0667 6.55188 13.4403C6.92552 13.814 7.43211 14.0242 7.96052 14.0248H11.1363L12.5439 17.1745C12.6202 17.3472 12.7301 17.5031 12.8672 17.633C13.0043 17.7629 13.1659 17.8642 13.3425 17.9311C13.5191 17.9992 13.7075 18.0316 13.8967 18.0264C14.0859 18.0212 14.2723 17.9784 14.4448 17.9007C14.7931 17.7451 15.0654 17.4576 15.2018 17.1013C15.3382 16.745 15.3267 16.3492 15.1714 16.0008ZM14.6127 16.8768C14.5752 16.976 14.5183 17.0668 14.4453 17.1438C14.3724 17.2209 14.2848 17.2826 14.1878 17.3254C14.0909 17.3689 13.9864 17.3929 13.8803 17.396C13.7741 17.3991 13.6684 17.3812 13.5692 17.3433C13.47 17.3055 13.3792 17.2484 13.302 17.1754C13.2249 17.1024 13.1629 17.0149 13.1197 16.918L11.6284 13.5812C11.6036 13.5256 11.5632 13.4785 11.5121 13.4454C11.4611 13.4123 11.4015 13.3948 11.3406 13.3948H7.96052C7.59901 13.3944 7.25243 13.2506 6.99679 12.995C6.74115 12.7394 6.59732 12.3929 6.59684 12.0314V6.66031C6.59368 6.52502 6.61758 6.39045 6.66714 6.26452C6.7167 6.13859 6.79092 6.02382 6.88545 5.92697C6.97997 5.83012 7.09289 5.75313 7.21758 5.70052C7.34227 5.64791 7.47621 5.62074 7.61155 5.62061C7.72071 5.61814 7.82925 5.63771 7.93069 5.67813C8.03212 5.71856 8.12437 5.77902 8.20191 5.85589L10.1175 7.77323C10.1467 7.8025 10.1815 7.82572 10.2197 7.84155C10.2579 7.85739 10.2989 7.86553 10.3403 7.86551H13.1231C13.3378 7.86551 13.5436 7.95079 13.6954 8.10259C13.8472 8.2544 13.9325 8.46029 13.9325 8.67497C13.9325 8.88965 13.8472 9.09554 13.6954 9.24734C13.5436 9.39915 13.3378 9.48443 13.1231 9.48443C9.59922 9.48443 9.94747 9.48443 9.88685 9.48281C9.44345 9.49918 9.22939 9.14823 9.1238 9.06585C9.07976 9.02184 9.02367 8.99189 8.96261 8.97976C8.90155 8.96763 8.83827 8.97388 8.78076 8.99771C8.72325 9.02155 8.6741 9.0619 8.63952 9.11367C8.60495 9.16543 8.58649 9.22629 8.5865 9.28854V11.4615C8.5865 11.545 8.61966 11.625 8.6787 11.6841C8.73773 11.7431 8.8178 11.7763 8.90129 11.7763C8.91927 11.7763 12.0522 11.7784 12.0708 11.7763C12.2268 11.7767 12.3793 11.8221 12.5101 11.9071C12.641 11.992 12.7445 12.113 12.8083 12.2553L14.5961 16.2571C14.6396 16.3542 14.6635 16.4589 14.6663 16.5653C14.6691 16.6716 14.6509 16.7775 14.6127 16.8768Z" fill="black"/>
<path d="M10.7892 14.987C10.5757 14.8562 10.3191 14.8154 10.0756 14.8736C9.83205 14.9318 9.62157 15.0842 9.49029 15.2974C9.15196 15.8496 8.68384 16.3108 8.12666 16.6408C7.56948 16.9709 6.9401 17.1598 6.29326 17.1912C5.64642 17.2226 5.00171 17.0955 4.4152 16.8209C3.82868 16.5463 3.31812 16.1326 2.92792 15.6158C2.53772 15.099 2.2797 14.4946 2.17629 13.8553C2.07288 13.216 2.12721 12.5612 2.33457 11.9477C2.54192 11.3341 2.89602 10.7806 3.36606 10.3351C3.83611 9.88965 4.40786 9.56576 5.03161 9.39161C5.1529 9.36004 5.26669 9.30463 5.36634 9.22863C5.46599 9.15262 5.54952 9.05754 5.61204 8.94891C5.67457 8.84029 5.71484 8.72031 5.73052 8.59597C5.74619 8.47162 5.73696 8.3454 5.70334 8.22466C5.66973 8.10392 5.61242 7.99108 5.53475 7.89272C5.45707 7.79436 5.3606 7.71245 5.25094 7.65176C5.14128 7.59107 5.02064 7.55282 4.89605 7.53924C4.77145 7.52566 4.6454 7.53702 4.52525 7.57266C3.60505 7.82927 2.76148 8.3068 2.06791 8.96373C1.37433 9.62065 0.851742 10.4371 0.5456 11.342C0.239459 12.2469 0.159032 13.2129 0.311314 14.156C0.463596 15.0991 0.843976 15.9907 1.41937 16.7533C1.99477 17.5159 2.74775 18.1263 3.61284 18.5316C4.47793 18.9368 5.42893 19.1246 6.38312 19.0785C7.33731 19.0325 8.2658 18.754 9.08784 18.2673C9.90988 17.7806 10.6006 17.1005 11.0999 16.2861C11.2306 16.0725 11.2714 15.8158 11.2131 15.5723C11.1549 15.3287 11.0024 15.1182 10.7892 14.987ZM10.5633 15.9565C10.1176 16.6835 9.50107 17.2906 8.7673 17.7251C8.03352 18.1595 7.20473 18.4081 6.35299 18.4492C5.50125 18.4903 4.65236 18.3227 3.88015 17.961C3.10794 17.5993 2.43579 17.0544 1.92216 16.3737C1.40853 15.693 1.06897 14.8971 0.93302 14.0553C0.797068 13.2135 0.868837 12.3512 1.14209 11.5434C1.41533 10.7357 1.88179 10.0069 2.50088 9.42046C3.11997 8.83405 3.87295 8.40777 4.69433 8.17868C4.77442 8.15742 4.85965 8.1686 4.93155 8.20978C5.00344 8.25096 5.05621 8.31883 5.07839 8.39866C5.10057 8.47849 5.09039 8.56384 5.05004 8.63621C5.0097 8.70858 4.94245 8.76213 4.86288 8.78524C4.14033 8.98687 3.47798 9.36198 2.93343 9.87794C2.38888 10.3939 1.97863 11.0351 1.73834 11.7457C1.49806 12.4563 1.43503 13.2149 1.55473 13.9555C1.67443 14.696 1.97324 15.3961 2.42517 15.9949C2.87709 16.5936 3.46845 17.0729 4.14782 17.391C4.82718 17.7092 5.57398 17.8565 6.32327 17.8202C7.07255 17.784 7.80163 17.5652 8.4471 17.183C9.09257 16.8007 9.63488 16.2666 10.0269 15.627C10.0485 15.5917 10.0769 15.5611 10.1104 15.5368C10.1438 15.5126 10.1818 15.4951 10.222 15.4855C10.2622 15.4759 10.3039 15.4743 10.3447 15.4808C10.3856 15.4873 10.4247 15.5018 10.4599 15.5235C10.4952 15.5451 10.5258 15.5735 10.5501 15.6069C10.5743 15.6404 10.5918 15.6783 10.6014 15.7185C10.611 15.7588 10.6126 15.8005 10.6061 15.8413C10.5996 15.8821 10.5849 15.9213 10.5633 15.9565Z" fill="black"/>
</svg>
