<svg width="20" height="21" viewBox="0 0 20 21" fill="none" xmlns="http://www.w3.org/2000/svg">
<path d="M19.1237 19.5142H15.988V15.1437C16.0483 15.151 16.1089 15.1549 16.1697 15.1552C16.5902 15.1545 16.9933 14.9871 17.2907 14.6897C17.588 14.3923 17.7554 13.9892 17.7561 13.5686V13.5534C18.0217 13.5173 18.2739 13.4146 18.4891 13.2548C18.7043 13.0949 18.8756 12.8832 18.9868 12.6392C19.0981 12.3953 19.1457 12.1272 19.1253 11.8599C19.105 11.5926 19.0172 11.3348 18.8703 11.1106C19.0523 10.9502 19.1951 10.7502 19.2876 10.526C19.3802 10.3017 19.42 10.0592 19.4041 9.81715C19.3882 9.57508 19.3169 9.33989 19.1958 9.12969C19.0747 8.9195 18.907 8.7399 18.7055 8.60474C18.8334 8.24236 18.8252 7.84585 18.6826 7.48904C18.5399 7.13223 18.2724 6.83943 17.9299 6.66514C17.9456 6.57611 17.9536 6.48587 17.9536 6.39547C17.953 6.02521 17.823 5.66682 17.5861 5.38226C17.3492 5.0977 17.0203 4.90486 16.6563 4.83711C16.6422 4.42622 16.4691 4.03687 16.1735 3.7511C15.878 3.46532 15.483 3.30545 15.0719 3.30518C14.6608 3.30491 14.2656 3.46425 13.9696 3.74963C13.6737 4.03501 13.5001 4.42413 13.4854 4.835C13.3941 4.85289 13.3046 4.87889 13.2179 4.91267C13.2425 4.79108 13.2549 4.66733 13.255 4.54327C13.2543 4.09316 13.093 3.65806 12.8002 3.31622C12.5074 2.97438 12.1022 2.74823 11.6576 2.67843C11.6578 2.17739 11.4591 1.69676 11.105 1.34228C10.7509 0.987793 10.2705 0.788488 9.76944 0.788208C9.2684 0.787929 8.78778 0.986697 8.43329 1.34079C8.0788 1.69488 7.8795 2.17528 7.87922 2.67632C7.43436 2.74642 7.0291 2.9729 6.73629 3.31506C6.44347 3.65722 6.28231 4.0926 6.28178 4.54295C6.28187 4.66718 6.29436 4.79109 6.31908 4.91283C6.23239 4.87914 6.14284 4.85336 6.05151 4.83581C6.03654 4.42535 5.86296 4.0367 5.56728 3.75161C5.27161 3.46652 4.87688 3.30722 4.46615 3.30722C4.05542 3.30722 3.6607 3.46652 3.36502 3.75161C3.06934 4.0367 2.89576 4.42535 2.88079 4.83581C2.5166 4.90386 2.18763 5.09702 1.95075 5.38189C1.71387 5.66677 1.58398 6.02546 1.58351 6.39595C1.58353 6.48636 1.59146 6.5766 1.60719 6.66563C1.2647 6.83979 0.997153 7.13247 0.854355 7.48918C0.711556 7.8459 0.70323 8.24234 0.830925 8.60474C0.629474 8.7399 0.461732 8.9195 0.340615 9.12969C0.219498 9.33989 0.148237 9.57508 0.132322 9.81715C0.116406 10.0592 0.15626 10.3017 0.248813 10.526C0.341366 10.7502 0.484151 10.9502 0.666171 11.1106C0.519234 11.3348 0.431485 11.5926 0.411108 11.8599C0.390732 12.1272 0.438392 12.3953 0.549643 12.6392C0.660895 12.8832 0.832112 13.0949 1.04732 13.2548C1.26253 13.4146 1.51473 13.5173 1.78037 13.5534V13.5686C1.78106 13.9892 1.94841 14.3923 2.24577 14.6897C2.54313 14.9871 2.94624 15.1545 3.36679 15.1552C3.4275 15.1549 3.48814 15.151 3.54841 15.1437V19.5142H0.412714C0.337451 19.5142 0.26527 19.5441 0.212051 19.5973C0.158832 19.6506 0.128934 19.7227 0.128934 19.798C0.128934 19.8733 0.158832 19.9455 0.212051 19.9987C0.26527 20.0519 0.337451 20.0818 0.412714 20.0818H19.1237C19.199 20.0818 19.2712 20.0519 19.3244 19.9987C19.3776 19.9455 19.4075 19.8733 19.4075 19.798C19.4075 19.7227 19.3776 19.6506 19.3244 19.5973C19.2712 19.5441 19.199 19.5142 19.1237 19.5142ZM14.0006 5.27786C14.0272 5.24677 14.0468 5.2103 14.058 5.17095C14.0692 5.1316 14.0717 5.09029 14.0655 5.04986C14.0568 4.99809 14.0523 4.94571 14.0518 4.89321C14.0518 4.623 14.1592 4.36385 14.3503 4.17278C14.5413 3.9817 14.8005 3.87436 15.0707 3.87436C15.3409 3.87436 15.6001 3.9817 15.7911 4.17278C15.9822 4.36385 16.0896 4.623 16.0896 4.89321C16.0892 4.94571 16.0846 4.99809 16.0759 5.04986C16.0707 5.09053 16.0743 5.13185 16.0865 5.17101C16.0986 5.21018 16.119 5.24628 16.1463 5.27688C16.174 5.30805 16.208 5.33298 16.246 5.35003C16.2841 5.36708 16.3253 5.37587 16.367 5.3758C16.5305 5.37524 16.6917 5.41416 16.837 5.48924C16.9822 5.56432 17.1072 5.67335 17.2012 5.80707C17.2953 5.94079 17.3557 6.09524 17.3773 6.2573C17.399 6.41937 17.3811 6.58425 17.3254 6.73795C17.3124 6.77406 17.3069 6.81242 17.3092 6.85071C17.3115 6.889 17.3215 6.92643 17.3387 6.96074C17.3559 6.99505 17.3798 7.02553 17.409 7.05034C17.4383 7.07515 17.4723 7.09377 17.5089 7.10508C17.6551 7.14982 17.7893 7.22694 17.9016 7.3307C18.0138 7.43445 18.1013 7.56218 18.1573 7.70438C18.2134 7.84658 18.2368 7.99959 18.2256 8.15205C18.2144 8.3045 18.169 8.45247 18.0927 8.58495C18.0728 8.61958 18.0604 8.65803 18.0564 8.69778C18.0524 8.73753 18.0568 8.77768 18.0694 8.8156C18.0819 8.85352 18.1024 8.88836 18.1293 8.91783C18.1563 8.9473 18.1892 8.97075 18.2259 8.98662C18.4 9.06191 18.5496 9.18434 18.6579 9.34012C18.7662 9.4959 18.8288 9.67884 18.8386 9.86829C18.8485 10.0577 18.8052 10.2462 18.7137 10.4124C18.6222 10.5785 18.4861 10.7159 18.3207 10.8088C18.2825 10.8304 18.2498 10.8605 18.2253 10.8969C18.2007 10.9332 18.1848 10.9747 18.179 11.0182C18.1732 11.0617 18.1775 11.1059 18.1917 11.1474C18.2058 11.189 18.2294 11.2266 18.2606 11.2575C18.404 11.3996 18.502 11.5811 18.5421 11.779C18.5822 11.9769 18.5626 12.1823 18.4857 12.369C18.4089 12.5557 18.2782 12.7153 18.1104 12.8277C17.9426 12.94 17.7452 12.9999 17.5433 12.9998C17.5156 12.9998 17.4883 12.9977 17.4613 12.9954C17.4169 12.9918 17.3723 12.9988 17.3311 13.0156C17.2899 13.0325 17.2533 13.0588 17.2241 13.0925C17.195 13.1262 17.1742 13.1662 17.1634 13.2094C17.1527 13.2526 17.1522 13.2977 17.1621 13.3411C17.1792 13.4156 17.1881 13.4917 17.1885 13.5681C17.1888 13.7888 17.1173 14.0036 16.9849 14.1801C16.8525 14.3566 16.6663 14.4854 16.4544 14.5469C16.2425 14.6084 16.0163 14.5995 15.81 14.5213C15.6036 14.4432 15.4282 14.3001 15.3102 14.1136C15.2846 14.0734 15.2492 14.0403 15.2073 14.0173C15.1655 13.9944 15.1185 13.9823 15.0708 13.9823C15.0231 13.9823 14.9761 13.9944 14.9342 14.0173C14.8924 14.0403 14.857 14.0734 14.8314 14.1136C14.7223 14.2864 14.5637 14.4222 14.3763 14.5034C14.1889 14.5846 13.9813 14.6075 13.7807 14.569C13.5801 14.5305 13.3958 14.4324 13.2518 14.2875C13.1078 14.1426 13.0108 13.9577 12.9735 13.7569C12.9986 13.6334 13.0113 13.5078 13.0114 13.3818C13.0114 13.3562 13.0114 13.3306 13.0096 13.3046C13.337 13.2707 13.6498 13.1519 13.9171 12.9599C14.1844 12.7679 14.3969 12.5094 14.5336 12.21C14.6703 11.9106 14.7264 11.5807 14.6963 11.253C14.6663 10.9252 14.5512 10.611 14.3624 10.3415C14.5921 10.1514 14.7735 9.90969 14.8918 9.63602C15.0101 9.36236 15.0618 9.06457 15.0428 8.76705C15.0239 8.46953 14.9347 8.18074 14.7826 7.92433C14.6305 7.66792 14.4198 7.45119 14.1678 7.29189C14.2908 6.97122 14.3241 6.6231 14.2641 6.28493C14.2041 5.94677 14.0531 5.63135 13.8273 5.37256C13.8942 5.36185 13.9554 5.32841 14.0006 5.27786ZM11.1221 15.2707C11.4251 15.2705 11.7237 15.1973 11.9925 15.0572C12.2612 14.9172 12.4923 14.7146 12.6662 14.4663C12.8122 14.678 13.0072 14.8512 13.2345 14.9711C13.4619 15.0911 13.715 15.1542 13.9721 15.1552C14.0327 15.1549 14.0933 15.151 14.1535 15.1437V19.5142H10.8325V15.2462C10.9282 15.2618 11.0251 15.27 11.1221 15.2707ZM6.9142 5.2104C6.93138 5.17612 6.94143 5.13872 6.94374 5.10045C6.94605 5.06219 6.94058 5.02385 6.92766 4.98775C6.85604 4.78953 6.83297 4.57703 6.8604 4.36806C6.88783 4.15909 6.96495 3.95974 7.08531 3.78672C7.20566 3.6137 7.36574 3.47206 7.55212 3.37366C7.7385 3.27526 7.94576 3.22297 8.15651 3.22118C8.20185 3.2244 8.24732 3.21723 8.28947 3.20023C8.33162 3.18323 8.36934 3.15684 8.39975 3.12307C8.42636 3.09196 8.44593 3.05546 8.45712 3.01608C8.46832 2.9767 8.47087 2.93537 8.46462 2.89491C8.45349 2.82785 8.44763 2.76003 8.44711 2.69205C8.44711 2.34154 8.58634 2.00538 8.83419 1.75753C9.08204 1.50968 9.4182 1.37044 9.76871 1.37044C10.1192 1.37044 10.4554 1.50968 10.7032 1.75753C10.9511 2.00538 11.0903 2.34154 11.0903 2.69205C11.0898 2.76003 11.0839 2.82785 11.0728 2.89491C11.0677 2.9358 11.0714 2.9773 11.0838 3.01661C11.0961 3.05592 11.1168 3.09212 11.1443 3.12275C11.1723 3.15395 11.2065 3.17889 11.2448 3.19594C11.2831 3.21298 11.3246 3.22175 11.3665 3.22167C11.5784 3.22114 11.7873 3.27173 11.9755 3.36913C12.1637 3.46653 12.3257 3.60787 12.4476 3.78118C12.5696 3.95449 12.648 4.15465 12.6761 4.36469C12.7042 4.57473 12.6813 4.78846 12.6093 4.98775C12.5964 5.02386 12.5909 5.06219 12.5932 5.10046C12.5955 5.13873 12.6056 5.17613 12.6227 5.21041C12.6399 5.2447 12.6638 5.27516 12.693 5.29996C12.7223 5.32476 12.7562 5.34339 12.7928 5.35472C12.9823 5.41288 13.1562 5.51299 13.3017 5.64759C13.4471 5.7822 13.5604 5.94784 13.633 6.13223C13.7057 6.31662 13.7358 6.515 13.7213 6.71265C13.7067 6.9103 13.6479 7.10213 13.549 7.27389C13.5291 7.30855 13.5167 7.34701 13.5127 7.38677C13.5087 7.42653 13.5132 7.46669 13.5258 7.50462C13.5383 7.54255 13.5588 7.57739 13.5858 7.60688C13.6127 7.63636 13.6456 7.65982 13.6823 7.67572C13.9081 7.7733 14.1022 7.93202 14.2427 8.13399C14.3831 8.33597 14.4643 8.57316 14.4772 8.81884C14.4901 9.06451 14.434 9.30889 14.3155 9.52443C14.1969 9.73997 14.0204 9.91809 13.806 10.0387C13.7678 10.0603 13.7352 10.0904 13.7106 10.1268C13.686 10.1631 13.6702 10.2046 13.6643 10.2481C13.6585 10.2915 13.6628 10.3358 13.6769 10.3773C13.691 10.4188 13.7146 10.4565 13.7457 10.4874C13.9317 10.6717 14.0588 10.907 14.1108 11.1637C14.1628 11.4203 14.1374 11.6866 14.0377 11.9287C13.9381 12.1708 13.7688 12.3779 13.5512 12.5236C13.3336 12.6693 13.0777 12.747 12.8159 12.747C12.7797 12.747 12.7445 12.7442 12.7092 12.7414C12.6648 12.7379 12.6202 12.7449 12.579 12.7618C12.5377 12.7787 12.5011 12.805 12.472 12.8387C12.4428 12.8724 12.422 12.9125 12.4113 12.9557C12.4005 12.9989 12.4001 13.0441 12.41 13.0875C12.4798 13.3911 12.4401 13.7096 12.2977 13.9867C12.1553 14.2638 11.9195 14.4816 11.6319 14.6016C11.3444 14.7215 11.0237 14.7359 10.7266 14.6421C10.4295 14.5484 10.1752 14.3526 10.0085 14.0893C9.98292 14.049 9.94754 14.0158 9.90567 13.9928C9.8638 13.9698 9.8168 13.9577 9.76903 13.9577C9.72126 13.9577 9.67427 13.9698 9.6324 13.9928C9.59053 14.0158 9.55515 14.049 9.52952 14.0893C9.36341 14.3535 9.10903 14.5502 8.81159 14.6445C8.51414 14.7389 8.19288 14.7247 7.90489 14.6046C7.6169 14.4844 7.38083 14.2661 7.2386 13.9883C7.09638 13.7106 7.05723 13.3914 7.12809 13.0875C7.13801 13.0441 7.13756 12.9989 7.12679 12.9557C7.11602 12.9125 7.09523 12.8724 7.0661 12.8387C7.03697 12.805 7.00033 12.7787 6.95912 12.7618C6.91791 12.7449 6.87331 12.7379 6.82891 12.7414C6.79356 12.7442 6.75837 12.747 6.72221 12.747C6.46034 12.7471 6.20434 12.6694 5.98673 12.5237C5.76912 12.378 5.59973 12.171 5.50008 11.9288C5.40042 11.6866 5.375 11.4203 5.42705 11.1637C5.4791 10.907 5.60626 10.6716 5.79238 10.4874C5.82344 10.4564 5.84688 10.4186 5.86088 10.377C5.87487 10.3354 5.87903 10.2911 5.87303 10.2477C5.86702 10.2042 5.85102 10.1627 5.82628 10.1264C5.80154 10.0902 5.76873 10.0602 5.73043 10.0387C5.516 9.91816 5.3395 9.7401 5.22084 9.52461C5.10219 9.30911 5.04609 9.06476 5.05886 8.81909C5.07164 8.57342 5.1528 8.33621 5.29317 8.13419C5.43355 7.93217 5.62756 7.77338 5.85335 7.67572C5.89001 7.65982 5.92291 7.63636 5.94988 7.60688C5.97685 7.57739 5.9973 7.54255 6.00988 7.50462C6.02246 7.46669 6.0269 7.42653 6.02289 7.38677C6.01889 7.34701 6.00654 7.30855 5.98665 7.27389C5.88779 7.10207 5.82893 6.91019 5.81443 6.7125C5.79994 6.51481 5.83018 6.31639 5.90291 6.13199C5.97564 5.9476 6.08899 5.78196 6.23454 5.64739C6.38008 5.51283 6.55409 5.41279 6.74361 5.35472C6.78033 5.34345 6.81438 5.32485 6.8437 5.30005C6.87302 5.27524 6.89701 5.24474 6.9142 5.2104ZM5.56438 15.1552C5.82147 15.1542 6.07451 15.0911 6.3019 14.9711C6.52929 14.8512 6.72429 14.678 6.87026 14.4663C7.07065 14.7567 7.34939 14.9841 7.67403 15.1222C7.99866 15.2602 8.35584 15.3032 8.70397 15.2462V19.5142H5.38293V15.1437C5.44314 15.151 5.50373 15.1549 5.56438 15.1552ZM2.34793 13.5686C2.34834 13.4922 2.3572 13.4161 2.37437 13.3416C2.38426 13.2982 2.38379 13.2531 2.37301 13.2099C2.36223 13.1667 2.34143 13.1267 2.3123 13.093C2.28317 13.0593 2.24653 13.033 2.20533 13.0161C2.16414 12.9993 2.11955 12.9923 2.07518 12.9959C2.0481 12.9981 2.02086 13.0003 1.99313 13.0003C1.79114 13.0004 1.59367 12.9405 1.4258 12.8282C1.25793 12.7159 1.12725 12.5562 1.05038 12.3694C0.973498 12.1826 0.95389 11.9772 0.994046 11.7792C1.0342 11.5813 1.13231 11.3997 1.27589 11.2577C1.30706 11.2268 1.33064 11.1891 1.34479 11.1476C1.35894 11.1061 1.36327 11.0618 1.35744 11.0184C1.35161 10.9749 1.33578 10.9333 1.31119 10.897C1.2866 10.8607 1.25393 10.8306 1.21573 10.809C1.05036 10.716 0.914239 10.5787 0.82273 10.4125C0.731221 10.2463 0.687959 10.0579 0.697822 9.86845C0.707685 9.679 0.770281 9.49607 0.878552 9.34029C0.986822 9.1845 1.13646 9.06207 1.3106 8.98679C1.34726 8.97091 1.38015 8.94747 1.40712 8.91799C1.43409 8.88852 1.45453 8.85368 1.4671 8.81576C1.47966 8.77784 1.48408 8.73769 1.48005 8.69794C1.47603 8.65819 1.46365 8.61975 1.44373 8.58512C1.36747 8.45263 1.32207 8.30466 1.31088 8.15221C1.29969 7.99975 1.32301 7.84674 1.3791 7.70454C1.4352 7.56234 1.52262 7.43462 1.63488 7.33086C1.74714 7.2271 1.88134 7.14999 2.02751 7.10524C2.0642 7.09398 2.09824 7.0754 2.12755 7.05061C2.15686 7.02583 2.18085 6.99536 2.19805 6.96104C2.21526 6.92672 2.22532 6.88928 2.22764 6.85096C2.22996 6.81264 2.22449 6.77425 2.21156 6.73811C2.15631 6.58552 2.13842 6.42191 2.15936 6.26098C2.18031 6.10006 2.23949 5.94648 2.33196 5.81312C2.42443 5.67975 2.54749 5.57047 2.69085 5.49442C2.83421 5.41836 2.9937 5.37774 3.15598 5.37596C3.20081 5.37877 3.24569 5.37139 3.28725 5.35437C3.32882 5.33735 3.36599 5.31114 3.39598 5.2777C3.42258 5.24661 3.44214 5.21014 3.45334 5.17079C3.46453 5.13144 3.46709 5.09013 3.46084 5.0497C3.45217 4.99792 3.44762 4.94554 3.44722 4.89305C3.44722 4.62283 3.55456 4.36369 3.74563 4.17261C3.93671 3.98154 4.19585 3.8742 4.46607 3.8742C4.73629 3.8742 4.99544 3.98154 5.18651 4.17261C5.37758 4.36369 5.48492 4.62283 5.48492 4.89305C5.48452 4.94554 5.47997 4.99792 5.4713 5.0497C5.46611 5.09037 5.4697 5.13169 5.48184 5.17085C5.49398 5.21002 5.51439 5.24612 5.54168 5.27672C5.58599 5.32656 5.64612 5.35961 5.71195 5.37029C5.48559 5.62901 5.33409 5.94458 5.27377 6.28301C5.21345 6.62144 5.24659 6.96992 5.36963 7.29091C5.11763 7.45021 4.90695 7.66695 4.75485 7.92335C4.60275 8.17976 4.51356 8.46856 4.49457 8.76608C4.47559 9.0636 4.52735 9.36139 4.64563 9.63505C4.76391 9.90871 4.94533 10.1505 5.17504 10.3405C4.98595 10.61 4.87059 10.9243 4.84037 11.2521C4.81015 11.5799 4.86614 11.91 5.00277 12.2095C5.1394 12.5091 5.35194 12.7677 5.61933 12.9598C5.88671 13.1519 6.19965 13.2707 6.52713 13.3046C6.52599 13.3306 6.52534 13.3562 6.52534 13.3818C6.52538 13.5077 6.53798 13.6332 6.56297 13.7566C6.52564 13.9574 6.42865 14.1423 6.28465 14.2872C6.14064 14.432 5.95631 14.5301 5.75572 14.5686C5.55512 14.6072 5.34757 14.5843 5.16015 14.5031C4.97273 14.4219 4.81415 14.286 4.7051 14.1133C4.67944 14.0731 4.64405 14.0399 4.6022 14.017C4.56035 13.994 4.51339 13.982 4.46567 13.982C4.41794 13.982 4.37098 13.994 4.32913 14.017C4.28728 14.0399 4.25189 14.0731 4.22624 14.1133C4.10824 14.2998 3.93285 14.4429 3.72648 14.521C3.52012 14.5991 3.29395 14.6081 3.08204 14.5466C2.87013 14.485 2.68396 14.3563 2.55156 14.1798C2.41915 14.0032 2.34769 13.7893 2.34793 13.5686ZM4.11548 19.5142V14.9668C4.2433 14.8984 4.3611 14.8128 4.46558 14.7123C4.5699 14.8129 4.6876 14.8985 4.81536 14.9668V19.5144L4.11548 19.5142ZM9.27104 19.5142V15.0641C9.4558 14.9702 9.62379 14.8464 9.76822 14.6977C9.91251 14.8463 10.0803 14.9701 10.2649 15.0641V19.5149L9.27104 19.5142ZM14.7206 19.5142V14.9668C14.8485 14.8985 14.9664 14.8129 15.0709 14.7123C15.1752 14.8128 15.2928 14.8984 15.4205 14.9668V19.5144L14.7206 19.5142Z" fill="black"/>
<path d="M11.0729 5.43983C11.0499 5.51142 11.0563 5.58919 11.0906 5.65608C11.1249 5.72297 11.1844 5.7735 11.256 5.79659C11.2841 5.80574 11.3135 5.81039 11.343 5.81037C11.4031 5.81032 11.4616 5.79125 11.5101 5.75588C11.5587 5.72051 11.5948 5.67066 11.6132 5.61351C11.6745 5.44435 11.6823 5.26043 11.6355 5.08669C11.5887 4.91296 11.4896 4.75783 11.3516 4.64233C11.2967 4.59087 11.2236 4.56335 11.1483 4.56581C11.0731 4.56827 11.0019 4.60052 10.9504 4.65546C10.899 4.71041 10.8715 4.78354 10.8739 4.85878C10.8764 4.93401 10.9086 5.00519 10.9636 5.05665C11.0226 5.09861 11.0656 5.15941 11.0855 5.22906C11.1053 5.29871 11.1009 5.37305 11.0729 5.43983Z" fill="black"/>
<path d="M11.6236 11.6378H11.6225C11.5852 11.6379 11.5483 11.6454 11.514 11.6598C11.4796 11.6742 11.4484 11.6952 11.4221 11.7217C11.3959 11.7482 11.3751 11.7795 11.361 11.814C11.3469 11.8485 11.3397 11.8854 11.3398 11.9227C11.3411 12.2073 11.3123 12.2383 11.1738 12.3868C11.1225 12.4419 11.0951 12.5151 11.0978 12.5903C11.1005 12.6655 11.1329 12.7366 11.188 12.7879C11.243 12.8392 11.3162 12.8665 11.3915 12.8639C11.4667 12.8612 11.5378 12.8288 11.5891 12.7737C11.8257 12.5199 11.9093 12.3521 11.9074 11.9203C11.9071 11.8452 11.877 11.7734 11.8238 11.7204C11.7706 11.6675 11.6987 11.6378 11.6236 11.6378Z" fill="black"/>
<path d="M11.6191 6.40194C11.5769 6.46426 11.5612 6.54079 11.5755 6.61468C11.5897 6.68858 11.6327 6.7538 11.695 6.79599C11.6991 6.79875 12.0994 7.0801 12.1398 7.47788C12.153 7.63693 12.1323 7.79697 12.0792 7.94747C12.0261 8.09797 11.9418 8.23553 11.8317 8.35111C11.7796 8.40334 11.7498 8.4738 11.7488 8.54758C11.7477 8.62136 11.7754 8.69266 11.826 8.74637C11.8766 8.80009 11.9461 8.832 12.0198 8.83534C12.0935 8.83869 12.1656 8.8132 12.2209 8.76429C12.3933 8.58825 12.5257 8.37707 12.609 8.14518C12.6923 7.91329 12.7246 7.66615 12.7037 7.42064C12.636 6.75578 12.0378 6.34324 12.0125 6.32605C11.9503 6.28407 11.8739 6.26849 11.8001 6.28272C11.7264 6.29694 11.6613 6.33981 11.6191 6.40194Z" fill="black"/>
</svg>
