<svg width="20" height="20" viewBox="0 0 20 20" fill="none" xmlns="http://www.w3.org/2000/svg">
<path d="M18.5244 13.4222H18.2V6.61149H18.5244C19.0617 6.61149 19.4973 6.17589 19.4973 5.63853C19.4973 5.10117 19.0617 4.66557 18.5244 4.66557H18.2V4.17909C18.1984 3.74219 17.9461 3.34506 17.5514 3.1578V1.42236C17.5514 0.885005 17.1158 0.449402 16.5784 0.449402H12.0379C11.5006 0.449402 11.065 0.885005 11.065 1.42236V3.06051C10.5079 3.14005 10.0936 3.61635 10.092 4.17909V4.66557H9.44338V4.17909C9.44338 3.55218 8.93517 3.04397 8.30826 3.04397C7.68135 3.04397 7.17314 3.55218 7.17314 4.17909V4.66557H6.5245V4.17909C6.5245 3.55218 6.01629 3.04397 5.38937 3.04397C4.76246 3.04397 4.25425 3.55218 4.25425 4.17909V4.66557H3.60561V4.17909C3.60561 3.55218 3.0974 3.04397 2.47049 3.04397C1.84358 3.04397 1.33537 3.55218 1.33537 4.17909V4.66557H1.01105C0.473689 4.66557 0.0380859 5.10117 0.0380859 5.63853C0.0380859 6.17589 0.473689 6.61149 1.01105 6.61149H1.33537V13.4222H1.01105C0.473689 13.4222 0.0380859 13.8578 0.0380859 14.3952C0.0380859 14.9325 0.473689 15.3681 1.01105 15.3681H1.35191C1.43145 15.9252 1.90775 16.3395 2.47049 16.3411C2.52485 16.3396 2.57906 16.334 2.63265 16.3246V18.6113H0.686727C0.507621 18.6113 0.362406 18.7566 0.362406 18.9357C0.362406 19.1148 0.507621 19.26 0.686727 19.26H18.8487C19.0278 19.26 19.173 19.1148 19.173 18.9357C19.173 18.7566 19.0278 18.6113 18.8487 18.6113H16.9028V16.3246C16.9563 16.334 17.0105 16.3396 17.0649 16.3411C17.6276 16.3395 18.104 15.9252 18.1835 15.3681H18.5244C19.0617 15.3681 19.4973 14.9325 19.4973 14.3952C19.4973 13.8578 19.0617 13.4222 18.5244 13.4222ZM18.2 5.31421H18.5244C18.7035 5.31421 18.8487 5.45942 18.8487 5.63853C18.8487 5.81764 18.7035 5.96285 18.5244 5.96285H18.2V5.31421ZM1.33537 14.7195H1.01105C0.831941 14.7195 0.686727 14.5743 0.686727 14.3952C0.686727 14.2161 0.831941 14.0709 1.01105 14.0709H1.33537V14.7195ZM1.33537 5.96285H1.01105C0.831941 5.96285 0.686727 5.81764 0.686727 5.63853C0.686727 5.45942 0.831941 5.31421 1.01105 5.31421H1.33537V5.96285ZM2.95697 15.206C2.95697 15.4746 2.73915 15.6925 2.47049 15.6925C2.20183 15.6925 1.98401 15.4746 1.98401 15.206V4.17909C1.98401 3.91043 2.20183 3.69261 2.47049 3.69261C2.73915 3.69261 2.95697 3.91043 2.95697 4.17909V15.206ZM3.60561 5.31421H4.25425V14.7195H3.60561V5.31421ZM4.57857 18.6113H3.28129V17.9627H4.57857V18.6113ZM4.57857 16.0168V17.3141H3.28129V16.0168C3.28129 16.0113 3.27837 16.0071 3.27837 16.0015C3.4469 15.829 3.55579 15.607 3.58907 15.3681H4.27014C4.30343 15.607 4.41232 15.829 4.58084 16.0015C4.58149 16.0071 4.57857 16.0113 4.57857 16.0168ZM10.7407 4.17909C10.7407 3.91043 10.9585 3.69261 11.2271 3.69261C11.4958 3.69261 11.7136 3.91043 11.7136 4.17909V15.206C11.7136 15.4746 11.4958 15.6925 11.2271 15.6925C10.9585 15.6925 10.7407 15.4746 10.7407 15.206V4.17909ZM9.44338 5.31421H10.092V14.7195H9.44338V5.31421ZM7.82178 4.17909C7.82178 3.91043 8.0396 3.69261 8.30826 3.69261C8.57692 3.69261 8.79474 3.91043 8.79474 4.17909V15.206C8.79474 15.4746 8.57692 15.6925 8.30826 15.6925C8.0396 15.6925 7.82178 15.4746 7.82178 15.206V4.17909ZM6.5245 5.31421H7.17314V14.7195H6.5245V5.31421ZM4.90289 15.206V4.17909C4.90289 3.91043 5.12071 3.69261 5.38937 3.69261C5.65803 3.69261 5.87585 3.91043 5.87585 4.17909V15.206C5.87585 15.4746 5.65803 15.6925 5.38937 15.6925C5.12071 15.6925 4.90289 15.4746 4.90289 15.206ZM14.3082 18.6113H5.22721V16.3246C5.28081 16.334 5.33501 16.3396 5.38937 16.3411C5.95211 16.3395 6.42841 15.9252 6.50795 15.3681H7.18903C7.27469 15.9861 7.84509 16.4176 8.46308 16.3319C8.96379 16.2625 9.35743 15.8689 9.42684 15.3681H10.1079C10.1936 15.9861 10.764 16.4176 11.382 16.3319C11.8827 16.2625 12.2763 15.8689 12.3457 15.3681H13.0268C13.1064 15.9254 13.583 16.3398 14.146 16.3411C14.2004 16.3396 14.2546 16.334 14.3082 16.3246V18.6113ZM12.3623 14.7195V5.31421H13.0109V14.7195H12.3623ZM14.6325 15.206C14.6325 15.4746 14.4147 15.6925 14.146 15.6925C13.8774 15.6925 13.6595 15.4746 13.6595 15.206V4.17909C13.6595 3.91043 13.8774 3.69261 14.146 3.69261C14.4147 3.69261 14.6325 3.91043 14.6325 4.17909V15.206ZM16.2541 18.6113H14.9568V17.9627H16.2541V18.6113ZM16.2541 16.0168V17.3141H14.9568V16.0168C14.9568 16.0113 14.9539 16.0071 14.9539 16.0015C15.1224 15.829 15.2313 15.607 15.2646 15.3681H15.9457C15.979 15.607 16.0879 15.829 16.2564 16.0015C16.257 16.0071 16.2541 16.0113 16.2541 16.0168ZM15.2811 14.7195V5.31421H15.9298V14.7195H15.2811ZM15.9298 4.17909V4.66557H15.2811V4.17909C15.2811 3.55218 14.7729 3.04397 14.146 3.04397C13.5191 3.04397 13.0109 3.55218 13.0109 4.17909V4.66557H12.3623V4.17909C12.3606 3.74219 12.1084 3.34506 11.7136 3.1578V1.42236C11.7136 1.24326 11.8588 1.09804 12.0379 1.09804H16.5784C16.7575 1.09804 16.9028 1.24326 16.9028 1.42236V3.06051C16.3457 3.14005 15.9314 3.61635 15.9298 4.17909ZM17.5514 15.206C17.5514 15.4746 17.3336 15.6925 17.0649 15.6925C16.7963 15.6925 16.5784 15.4746 16.5784 15.206V4.17909C16.5784 3.91043 16.7963 3.69261 17.0649 3.69261C17.3336 3.69261 17.5514 3.91043 17.5514 4.17909V15.206ZM18.5244 14.7195H18.2V14.0709H18.5244C18.7035 14.0709 18.8487 14.2161 18.8487 14.3952C18.8487 14.5743 18.7035 14.7195 18.5244 14.7195Z" fill="black"/>
<path d="M12.6858 2.71964C13.044 2.71964 13.3344 2.42923 13.3344 2.071C13.3344 1.71276 13.044 1.42236 12.6858 1.42236C12.3275 1.42236 12.0371 1.71276 12.0371 2.071C12.0371 2.42923 12.3275 2.71964 12.6858 2.71964Z" fill="black"/>
<path d="M14.3075 2.71964C14.6658 2.71964 14.9562 2.42923 14.9562 2.071C14.9562 1.71276 14.6658 1.42236 14.3075 1.42236C13.9493 1.42236 13.6589 1.71276 13.6589 2.071C13.6589 2.42923 13.9493 2.71964 14.3075 2.71964Z" fill="black"/>
<path d="M15.9293 2.71964C16.2875 2.71964 16.5779 2.42923 16.5779 2.071C16.5779 1.71276 16.2875 1.42236 15.9293 1.42236C15.5711 1.42236 15.2806 1.71276 15.2806 2.071C15.2806 2.42923 15.5711 2.71964 15.9293 2.71964Z" fill="black"/>
</svg>
