<svg width="22" height="21" viewBox="0 0 22 21" fill="none" xmlns="http://www.w3.org/2000/svg">
<path d="M0.965844 19.7082H9.87619C10.1939 19.7082 10.4524 19.4497 10.4524 19.132V12.2022C10.4524 12.0343 10.3162 11.8981 10.1483 11.8981C9.98041 11.8981 9.84428 12.0343 9.84428 12.2022V12.5712C8.63153 12.4315 7.66635 11.4663 7.52661 10.2536H9.84428V10.7833C9.84428 10.9512 9.98041 11.0873 10.1483 11.0873C10.3162 11.0873 10.4524 10.9512 10.4524 10.7833V10.2535H19.3308C19.6485 10.2535 19.907 9.99507 19.907 9.67735V0.767053C19.907 0.44934 19.6485 0.190857 19.3308 0.190857H10.4205C10.3221 0.190857 10.2294 0.215627 10.1483 0.259289C10.0673 0.215627 9.97454 0.190857 9.87619 0.190857H0.965844C0.648132 0.190857 0.389648 0.44934 0.389648 0.767053V9.67739C0.389648 9.77578 0.414418 9.86846 0.45808 9.94954C0.414418 10.0306 0.389648 10.1233 0.389648 10.2217V19.132C0.389648 19.4497 0.648132 19.7082 0.965844 19.7082ZM0.997749 13.1826C2.54614 13.0382 3.78237 11.802 3.92681 10.2536H5.10665C4.95685 12.451 3.19514 14.2127 0.997749 14.3624V13.1826ZM0.997749 7.32781C2.21051 7.46756 3.17568 8.43269 3.31542 9.64545H0.997749V7.32781ZM9.84428 9.64545H7.52661C7.66635 8.43269 8.63148 7.46756 9.84428 7.32781V9.64545ZM9.84428 6.71643C8.29589 6.86087 7.05967 8.09706 6.91522 9.64545H5.73538C5.88518 7.44806 7.64685 5.68639 9.84428 5.53659V6.71643ZM3.92681 9.64545C3.78237 8.09706 2.54614 6.86087 0.997749 6.71643V5.53659C3.19514 5.68639 4.95685 7.44806 5.10665 9.64545H3.92681ZM3.31542 10.2536C3.17568 11.4663 2.21055 12.4315 0.997749 12.5712V10.2536H3.31542ZM5.42099 11.6729C5.92941 13.0632 7.03465 14.1684 8.42493 14.6768C7.03465 15.1852 5.92941 16.2905 5.42099 17.6808C4.91258 16.2905 3.80734 15.1852 2.41706 14.6768C3.80734 14.1684 4.91258 13.0632 5.42099 11.6729ZM5.42099 8.22618C4.91258 6.8359 3.80734 5.73066 2.41706 5.22224C3.80734 4.71383 4.91258 3.60859 5.42099 2.21831C5.92941 3.60859 7.03465 4.71383 8.42493 5.22224C7.03469 5.73066 5.92945 6.8359 5.42099 8.22618ZM0.997749 16.7824C2.21051 16.9222 3.17568 17.8873 3.31542 19.1001H0.997749V16.7824ZM3.92681 19.1001C3.78237 17.5517 2.54614 16.3155 0.997749 16.1711V14.9912C3.19514 15.141 4.95685 16.9027 5.10665 19.1001L3.92681 19.1001ZM9.84428 14.9912V16.1711C8.29589 16.3155 7.05967 17.5517 6.91522 19.1001H5.73538C5.88518 16.9027 7.64689 15.141 9.84428 14.9912ZM9.84428 19.1001H7.52661C7.66639 17.8874 8.63161 16.9222 9.84428 16.7824V19.1001ZM9.84428 13.1826V14.3624C7.64689 14.2127 5.88518 12.451 5.73538 10.2536H6.91522C7.05967 11.802 8.29589 13.0382 9.84428 13.1826ZM10.4524 7.32781C11.6651 7.46756 12.6303 8.43269 12.77 9.64545H10.4524V7.32781ZM13.3814 9.64545C13.237 8.09706 12.0008 6.86087 10.4524 6.71643V5.53659C12.6498 5.68639 14.4114 7.44806 14.5612 9.64545H13.3814ZM19.2989 6.71643C17.7505 6.86087 16.5143 8.09706 16.3698 9.64545H15.19C15.3398 7.44806 17.1015 5.68639 19.2989 5.53659L19.2989 6.71643ZM16.9812 9.64545C17.1209 8.43269 18.0861 7.46756 19.2989 7.32781V9.64545H16.9812ZM19.2989 3.11663C18.0861 2.97689 17.1209 2.01175 16.9812 0.798958H19.2989V3.11663ZM16.3698 0.798958C16.5143 2.34735 17.7505 3.58357 19.2989 3.72802V4.90786C17.1015 4.75806 15.3398 2.99635 15.19 0.798958H16.3698ZM12.9437 4.31962C13.0513 4.4485 13.243 4.46569 13.3719 4.35805C14.0626 3.78113 14.5762 3.04208 14.876 2.2194C15.3846 3.60915 16.4897 4.71395 17.8796 5.2222C16.4893 5.73062 15.384 6.83586 14.8756 8.22614C14.3674 6.83635 13.2627 5.73139 11.8732 5.22273C11.9371 5.19938 12.0006 5.17473 12.0638 5.1487C12.219 5.08473 12.293 4.907 12.2291 4.75174C12.1651 4.59647 11.9875 4.52248 11.8321 4.58641C11.3913 4.76803 10.9284 4.87579 10.4524 4.9079V3.72802C12.0008 3.58357 13.237 2.34735 13.3814 0.798958H14.5612C14.4792 1.99911 13.914 3.11294 12.9821 3.89135C12.8532 3.99903 12.836 4.19074 12.9437 4.31962ZM10.4524 3.11663V0.798958H12.77C12.6303 2.01171 11.6651 2.97689 10.4524 3.11663ZM9.84428 3.11663C8.63153 2.97689 7.66635 2.01175 7.52661 0.798958H9.84428V3.11663ZM6.91522 0.798958C7.05967 2.34735 8.29589 3.58357 9.84428 3.72802V4.90786C7.64689 4.75806 5.88518 2.99635 5.73538 0.798958H6.91522ZM0.997749 4.90786V3.72802C2.54614 3.58357 3.78237 2.34735 3.92681 0.798958H5.10665C4.95685 2.99635 3.19514 4.75806 0.997749 4.90786ZM3.31542 0.798958C3.17568 2.01171 2.21051 2.97689 0.997749 3.11663V0.798958H3.31542Z" fill="black"/>
<path d="M20.5696 10.8846H11.6593C11.3416 10.8846 11.0831 11.1431 11.0831 11.4608V20.3711C11.0831 20.6888 11.3416 20.9473 11.6593 20.9473H20.5697C20.8874 20.9473 21.1459 20.6888 21.1459 20.3711V11.4608C21.1458 11.1431 20.8873 10.8846 20.5696 10.8846ZM20.5377 13.8104C19.325 13.6707 18.3598 12.7055 18.22 11.4927H20.5377V13.8104ZM17.6087 11.4927C17.7531 13.0411 18.9893 14.2774 20.5377 14.4218V15.6016C18.3403 15.4518 16.5786 13.6902 16.4288 11.4927H17.6087ZM19.1184 15.916C17.7281 16.4244 16.6229 17.5297 16.1145 18.92C15.6061 17.5297 14.5008 16.4244 13.1105 15.916C14.5008 15.4076 15.6061 14.3024 16.1145 12.9121C16.6229 14.3023 17.7281 15.4076 19.1184 15.916ZM11.6912 15.6016V14.4218C13.2396 14.2774 14.4758 13.0411 14.6202 11.4927H15.8001C15.6503 13.6901 13.8886 15.4518 11.6912 15.6016ZM14.0089 11.4927C13.8691 12.7055 12.904 13.6707 11.6912 13.8104V11.4927H14.0089ZM11.6912 18.0216C12.9039 18.1613 13.8691 19.1265 14.0089 20.3393H11.6912V18.0216ZM14.6202 20.3393C14.4758 18.7909 13.2396 17.5547 11.6912 17.4102V16.2304C13.8886 16.3802 15.6503 18.1418 15.8001 20.3393H14.6202ZM18.2202 20.3393C18.282 19.8041 18.5063 19.299 18.8671 18.8924C18.9785 18.7668 18.967 18.5747 18.8414 18.4632C18.7158 18.3518 18.5237 18.3632 18.4122 18.4888C17.9525 19.0068 17.6729 19.6548 17.6087 20.3393H16.4288C16.5786 18.1419 18.3403 16.3802 20.5377 16.2304V17.4101C20.2595 17.4359 19.987 17.4973 19.7244 17.5935C19.5668 17.6513 19.4858 17.8259 19.5436 17.9836C19.6014 18.1413 19.7761 18.2222 19.9337 18.1645C20.129 18.0929 20.3312 18.0451 20.5377 18.0215V20.3393H18.2202Z" fill="black"/>
<path d="M5.18959 3.85206L4.05107 4.99058C3.92349 5.11845 3.92357 5.32638 4.05131 5.45408L5.18963 6.5924C5.3164 6.71921 5.52429 6.72177 5.65333 6.5924L6.79141 5.45432C6.91976 5.32622 6.91988 5.11865 6.79162 4.99038L5.65329 3.85206C5.52559 3.72432 5.31766 3.72419 5.18959 3.85206ZM5.42144 5.96424L4.6794 5.22223L5.42144 4.48019L6.16345 5.22223L5.42144 5.96424Z" fill="black"/>
<path d="M14.6154 6.59212C14.7447 6.72169 14.9526 6.7193 15.0793 6.59233L16.2177 5.454C16.3454 5.3263 16.3455 5.11837 16.2177 4.99031L15.0793 3.85198C14.9513 3.72387 14.7438 3.72379 14.6156 3.85198L13.4773 4.99031C13.3479 5.11967 13.3505 5.32744 13.4773 5.454L14.6154 6.59212ZM14.8475 4.48019L15.5895 5.22224L14.8475 5.96424L14.1055 5.22224L14.8475 4.48019Z" fill="black"/>
<path d="M15.8835 14.5458L14.7453 15.6841C14.6174 15.8119 14.6174 16.02 14.7453 16.1478C14.7611 16.1636 15.8993 17.3019 15.8837 17.2863C16.0112 17.4135 16.219 17.4141 16.3472 17.2861L17.4858 16.1476C17.6132 16.0198 17.6132 15.812 17.4855 15.6841L16.3472 14.5458C16.2194 14.418 16.0114 14.418 15.8835 14.5458ZM16.1154 16.6581L15.3734 15.916L16.1154 15.174L16.8575 15.916L16.1154 16.6581Z" fill="black"/>
<path d="M5.19012 16.0472C5.31754 16.1743 5.52539 16.1749 5.65362 16.0469L6.79166 14.9089C6.92122 14.7796 6.91883 14.5717 6.79186 14.445L5.65357 13.3066C5.52575 13.1788 5.3177 13.1788 5.18988 13.3066L4.05155 14.445C3.92345 14.573 3.92337 14.7805 4.05155 14.9087C5.12461 15.9817 5.18708 16.0431 5.19012 16.0472ZM5.42173 13.9348L6.16373 14.6768L5.42173 15.4189L4.67968 14.6768L5.42173 13.9348Z" fill="black"/>
</svg>
