<svg width="19" height="17" viewBox="0 0 19 17" fill="none" xmlns="http://www.w3.org/2000/svg">
<path d="M18.4841 8.34069H2.59239V2.47178C2.59239 2.14385 2.72266 1.82935 2.95454 1.59747C3.18642 1.36558 3.50092 1.23531 3.82886 1.23531C4.15679 1.23531 4.47129 1.36558 4.70317 1.59747C4.93506 1.82935 5.06533 2.14385 5.06533 2.47178V2.83859C4.56644 2.92517 4.11406 3.18492 3.78779 3.57214C3.46152 3.95936 3.28227 4.44924 3.28157 4.95559V5.15829C3.28157 5.3374 3.42678 5.50288 3.60589 5.50288H7.25449C7.4336 5.50288 7.57881 5.3374 7.57881 5.15829V4.95559C7.5781 4.43515 7.38876 3.9326 7.04587 3.54109C6.70297 3.14957 6.22978 2.89562 5.71397 2.82631V2.47178C5.71397 1.97182 5.51536 1.49233 5.16183 1.13881C4.80831 0.785279 4.32882 0.58667 3.82886 0.58667C3.32889 0.58667 2.84941 0.785279 2.49588 1.13881C2.14235 1.49233 1.94374 1.97182 1.94374 2.47178V8.34069H1.05186C1.00986 8.33947 0.968033 8.34667 0.92885 8.36186C0.889667 8.37705 0.853916 8.39992 0.823699 8.42912C0.793482 8.45833 0.769409 8.49328 0.752896 8.53192C0.736383 8.57056 0.727763 8.61212 0.727543 8.65414V9.87034C0.727137 9.9575 0.760838 10.0414 0.821441 10.104C0.882045 10.1666 0.964744 10.2031 1.05186 10.2055H1.94374V11.8973C1.94296 12.6753 2.19777 13.4319 2.66897 14.0508L2.21686 14.5028C2.12956 14.5892 2.0602 14.692 2.01276 14.8053C1.96532 14.9186 1.94074 15.0402 1.94043 15.1631C1.94012 15.2859 1.96408 15.4076 2.01095 15.5211C2.05781 15.6347 2.12665 15.7379 2.21352 15.8247C2.30038 15.9116 2.40355 15.9804 2.5171 16.0273C2.63065 16.0742 2.75234 16.0981 2.87518 16.0978C2.99802 16.0975 3.11959 16.0729 3.23291 16.0255C3.34622 15.9781 3.44904 15.9087 3.53547 15.8214L4.15873 15.2036C4.58745 15.3818 5.04697 15.4743 5.51127 15.4757H14.0247C14.489 15.4744 14.9485 15.382 15.3772 15.2038L16.0005 15.8244C16.0872 15.911 16.1902 15.9796 16.3034 16.0264C16.4167 16.0732 16.5381 16.0972 16.6606 16.0971C16.7832 16.097 16.9045 16.0728 17.0177 16.0258C17.1309 15.9788 17.2337 15.9099 17.3203 15.8232C17.4069 15.7364 17.4755 15.6335 17.5223 15.5202C17.5691 15.407 17.5931 15.2856 17.593 15.163C17.5929 15.0405 17.5687 14.9191 17.5217 14.806C17.4747 14.6928 17.4058 14.59 17.3191 14.5034L16.867 14.0511C17.3382 13.432 17.593 12.6753 17.5922 11.8973V10.2055H18.4841C18.5712 10.2031 18.6539 10.1666 18.7145 10.104C18.7751 10.0414 18.8088 9.9575 18.8084 9.87034V8.65414C18.8082 8.61212 18.7996 8.57056 18.7831 8.53192C18.7665 8.49328 18.7425 8.45833 18.7123 8.42912C18.682 8.39992 18.6463 8.37705 18.6071 8.36186C18.5679 8.34667 18.5261 8.33947 18.4841 8.34069ZM6.92531 4.85424H3.93507C3.99718 4.04344 4.64404 3.47588 5.43019 3.47588C6.21634 3.47588 6.8632 4.04344 6.92531 4.85424ZM1.37618 9.55689V8.98933H1.94374V9.55689H1.37618ZM3.07684 15.363C3.05049 15.3893 3.0192 15.4102 2.98477 15.4245C2.95034 15.4387 2.91343 15.4461 2.87617 15.4461C2.8389 15.4461 2.80199 15.4387 2.76756 15.4245C2.73313 15.4102 2.70185 15.3893 2.67549 15.363C2.64914 15.3366 2.62824 15.3053 2.61397 15.2709C2.59971 15.2365 2.59237 15.1995 2.59237 15.1623C2.59237 15.125 2.59971 15.0881 2.61397 15.0537C2.62824 15.0192 2.64914 14.988 2.67549 14.9616L3.10672 14.5304C3.2477 14.6592 3.39873 14.7766 3.55837 14.8814L3.07684 15.363ZM16.8605 15.363C16.8341 15.3893 16.8028 15.4102 16.7684 15.4245C16.734 15.4387 16.6971 15.4461 16.6598 15.4461C16.6225 15.4461 16.5856 15.4387 16.5512 15.4245C16.5167 15.4102 16.4855 15.3893 16.4591 15.363L15.9776 14.8814C16.1372 14.7766 16.2883 14.6592 16.4292 14.5304L16.8605 14.9616C16.9136 15.0149 16.9434 15.087 16.9434 15.1623C16.9434 15.2375 16.9136 15.3097 16.8605 15.363ZM16.9436 11.8973C16.9436 13.5068 15.6341 14.8271 14.0247 14.8271H5.51127C3.90183 14.8271 2.59239 13.5069 2.59239 11.8973V10.2055H16.9436V11.8973ZM18.1598 9.55689H2.59239V8.98933H18.1598V9.55689Z" fill="black"/>
</svg>
