<svg width="17" height="21" viewBox="0 0 17 21" fill="none" xmlns="http://www.w3.org/2000/svg">
<path d="M12.1979 14.701C10.9737 14.7007 9.79953 14.2148 8.9331 13.3499C8.06666 12.4849 7.57869 11.3117 7.57624 10.0874C7.57624 7.63562 11.7836 1.17249 11.9632 0.898732C11.9902 0.861913 12.0256 0.831979 12.0664 0.811349C12.1072 0.790718 12.1522 0.779968 12.1979 0.779968C12.2436 0.779968 12.2887 0.790718 12.3295 0.811349C12.3703 0.831979 12.4056 0.861913 12.4327 0.898732C12.6119 1.17277 16.8196 7.63562 16.8196 10.0874C16.8172 11.3117 16.3292 12.4849 15.4628 13.3499C14.5963 14.2148 13.4222 14.7007 12.1979 14.701ZM12.1979 1.57192C11.3003 2.98757 8.13722 8.11583 8.13722 10.0871C8.13722 11.1641 8.56505 12.197 9.32658 12.9585C10.0881 13.72 11.121 14.1478 12.1979 14.1478C13.2749 14.1478 14.3077 13.72 15.0693 12.9585C15.8308 12.197 16.2586 11.1641 16.2586 10.0871C16.2586 8.11611 13.0958 2.98729 12.1979 1.57192Z" fill="black"/>
<path d="M12.7902 13.2713C12.7206 13.2714 12.6535 13.2456 12.6019 13.199C12.5503 13.1523 12.5178 13.0882 12.5108 13.019C12.5038 12.9498 12.5228 12.8805 12.5641 12.8244C12.6053 12.7684 12.6659 12.7298 12.7341 12.7159C12.7885 12.7049 12.8424 12.6923 12.8957 12.6781C12.9313 12.6686 12.9684 12.6662 13.0049 12.6711C13.0414 12.6759 13.0766 12.6879 13.1085 12.7064C13.1404 12.7249 13.1683 12.7494 13.1907 12.7787C13.2131 12.8079 13.2295 12.8413 13.239 12.8769C13.2485 12.9125 13.2508 12.9496 13.246 12.9862C13.2411 13.0227 13.2291 13.0579 13.2106 13.0898C13.1922 13.1217 13.1676 13.1496 13.1384 13.172C13.1091 13.1944 13.0757 13.2108 13.0401 13.2203C12.9762 13.2374 12.9116 13.2525 12.8463 13.266C12.8278 13.2696 12.809 13.2714 12.7902 13.2713Z" fill="black"/>
<path d="M13.7881 12.8708C13.7273 12.8708 13.6681 12.8512 13.6195 12.8147C13.5708 12.7782 13.5353 12.7269 13.5184 12.6685C13.5014 12.6101 13.5039 12.5478 13.5254 12.491C13.5469 12.4341 13.5864 12.3858 13.6377 12.3533C13.9655 12.147 14.2446 11.8722 14.456 11.5478C14.6674 11.2234 14.8061 10.857 14.8624 10.4739C14.8671 10.437 14.8791 10.4014 14.8977 10.3691C14.9164 10.3369 14.9412 10.3087 14.9709 10.2861C15.0005 10.2636 15.0343 10.2472 15.0704 10.2378C15.1065 10.2285 15.144 10.2265 15.1809 10.2318C15.2177 10.2372 15.2531 10.2498 15.2851 10.269C15.317 10.2882 15.3448 10.3135 15.3668 10.3435C15.3888 10.3736 15.4047 10.4077 15.4133 10.4439C15.422 10.4801 15.4234 10.5177 15.4175 10.5544C15.3497 11.0178 15.1823 11.461 14.9269 11.8535C14.6715 12.246 14.3341 12.5785 13.9379 12.8281C13.893 12.8562 13.841 12.871 13.7881 12.8708Z" fill="black"/>
<path d="M7.55103 20.4062C6.91837 20.4061 6.31159 20.1549 5.86383 19.708C5.41607 19.261 5.1639 18.6547 5.16263 18.022C5.16263 16.8097 7.09579 13.8185 7.31626 13.4817C7.34176 13.4426 7.37657 13.4106 7.41756 13.3884C7.45855 13.3662 7.50443 13.3546 7.55103 13.3546C7.59764 13.3546 7.64352 13.3662 7.68451 13.3884C7.7255 13.4106 7.76031 13.4426 7.78581 13.4817C8.00628 13.8182 9.93916 16.81 9.93916 18.0223C9.93782 18.6549 9.68565 19.2611 9.23796 19.708C8.79027 20.1549 8.18361 20.406 7.55103 20.4062ZM7.55103 14.1562C6.88458 15.2221 5.72362 17.24 5.72362 18.022C5.72362 18.5066 5.91614 18.9714 6.25882 19.3141C6.6015 19.6568 7.06627 19.8493 7.55089 19.8493C8.03552 19.8493 8.50029 19.6568 8.84297 19.3141C9.18565 18.9714 9.37817 18.5066 9.37817 18.022C9.37817 17.2397 8.21721 15.2216 7.55103 14.1562Z" fill="black"/>
<path d="M3.33578 14.924C2.64097 14.9238 1.97459 14.648 1.48287 14.1572C0.99114 13.6663 0.714228 13.0004 0.712891 12.3056C0.712891 10.9676 2.85642 7.65105 3.10101 7.27715C3.12651 7.23813 3.16132 7.20608 3.20231 7.1839C3.2433 7.16171 3.28918 7.15009 3.33578 7.15009C3.38239 7.15009 3.42827 7.16171 3.46926 7.1839C3.51025 7.20608 3.54506 7.23813 3.57056 7.27715C3.81515 7.65105 5.9584 10.9676 5.9584 12.3056C5.95706 13.0003 5.68019 13.6662 5.18852 14.1571C4.69685 14.6479 4.03055 14.9237 3.33578 14.924ZM3.33578 7.95146C2.59837 9.12616 1.27388 11.4192 1.27388 12.3056C1.27388 12.8523 1.49108 13.3767 1.87771 13.7633C2.26434 14.15 2.78873 14.3672 3.3355 14.3672C3.88228 14.3672 4.40666 14.15 4.79329 13.7633C5.17992 13.3767 5.39713 12.8523 5.39713 12.3056C5.39741 11.4192 4.0732 9.12532 3.33578 7.95146Z" fill="black"/>
</svg>
